<svg width="538" height="369" viewBox="0 0 538 369" fill="none" xmlns="http://www.w3.org/2000/svg">
<path d="M39.9317 332.418C53.6748 335.229 67.6666 336.646 81.6943 336.646C98.3148 336.646 114.876 334.657 131.024 330.723L139.066 328.764C140.022 328.531 139.853 327.123 138.869 327.123H24.8077C23.4949 327.123 23.3032 329.017 24.5894 329.28L39.9317 332.418Z" fill="url(#paint0_linear)"/>
<path d="M104.433 310.348C93.1462 305.493 81.8594 308.559 69.5144 308.815C56.8167 309.07 44.1189 308.304 31.7739 309.581C30.0103 309.837 28.2468 310.092 26.8359 310.859C15.9018 317.502 66.3399 318.269 70.9252 318.013C76.5687 317.758 111.135 318.269 108.313 313.414C107.608 311.881 105.844 310.859 104.433 310.348Z" fill="url(#paint1_linear)"/>
<path d="M330.061 0.645807C380.104 0.645804 424.306 25.8718 450.833 64.4028C456.375 72.4465 461.149 81.0649 465.041 90.1608C466.523 93.6203 467.872 97.1522 469.096 100.745C474.218 115.816 477 131.989 477 148.82C477 163.256 474.955 177.215 471.135 190.405C470.499 192.595 469.821 194.759 469.09 196.907C467.866 200.499 466.511 204.031 465.035 207.491C461.137 216.587 456.368 225.205 450.827 233.243C424.3 271.768 380.104 296.994 330.061 296.994C248.908 296.994 183.121 230.654 183.121 148.82C183.121 66.9855 248.908 0.64581 330.061 0.645807Z" fill="url(#paint2_linear)"/>
<path d="M81.2728 286.001C81.5771 286.186 81.7915 286.37 81.8706 286.536C81.6026 286.008 81.2169 285.566 80.7866 285.139C78.4045 280.968 76.2446 276.696 74.3671 272.326C74.0002 271.438 73.6333 270.549 73.281 269.645C74.1753 267.647 77.2885 263.888 77.8723 262.66C79.0983 260.147 80.7739 257.03 81.0022 254.167C81.0922 252.974 80.7819 249.547 79.0103 249.421C76.9981 249.26 75.9205 254.719 75.6696 256.073C75.1298 259.064 75.0575 262.169 74.1857 265.064C73.7841 266.385 73.2325 267.703 73.0415 269.058C71.4728 265.053 70.1425 260.992 69.0652 256.863C69.8856 254.908 73.1004 251.016 73.6988 249.774C74.9249 247.26 76.6005 244.143 76.8287 241.28C76.9188 240.087 76.6085 236.661 74.8369 236.534C72.8247 236.373 71.7471 241.833 71.4962 243.187C70.9564 246.178 70.8841 249.283 70.0122 252.177C69.6252 253.484 69.0583 254.787 68.882 256.127C67.7688 251.758 66.9393 247.35 66.469 242.919C66.1229 239.865 65.9714 236.8 65.9553 233.752C67.7443 232.176 70.394 230.259 71.1089 229.482C72.9752 227.4 75.4446 224.867 76.4271 222.199C76.8339 221.087 77.44 217.754 75.7319 217.166C73.7969 216.499 71.2972 221.421 70.698 222.633C69.3719 225.339 68.4862 228.278 66.8556 230.799C66.5669 231.241 66.2482 231.682 65.9449 232.139C66.0072 228.033 66.3394 223.932 66.973 219.898C67.8439 219.363 68.6057 218.662 69.4297 218.052C71.4739 216.496 73.9222 215.516 76.167 214.188C77.171 213.581 81.2006 211.11 80.4866 209.527C79.8525 208.14 77.0238 208.888 76.1053 209.317C73.883 210.347 71.8867 212.621 70.2514 214.35C69.6527 214.979 68.3577 217.133 67.1838 218.737C67.5113 216.847 67.8687 214.958 68.3161 213.07C69.0365 210.113 69.9376 207.189 70.9755 204.342C72.1163 203.813 73.0528 202.907 74.0676 202.136C76.1119 200.58 78.5602 199.6 80.7904 198.287C81.7943 197.68 85.824 195.209 85.11 193.626C84.4759 192.239 81.6471 192.987 80.7287 193.416C78.5064 194.446 76.51 196.72 74.8747 198.448C74.1883 199.166 72.5344 201.955 71.2552 203.542C72.6745 199.762 74.3659 196.078 76.3609 192.55C77.291 191.986 78.0959 191.211 78.9484 190.542C80.9766 188.941 83.4088 187.915 85.5928 186.556C86.5814 185.935 90.5642 183.388 89.8056 181.819C89.1415 180.431 86.3296 181.254 85.4265 181.699C83.235 182.759 81.2847 185.079 79.6801 186.838C79.4762 187.073 79.1575 187.514 78.8111 188.045C77.5027 189.661 76.2557 191.338 75.1002 193.076C75.041 193.105 74.9671 193.148 74.9225 193.162C74.9817 193.134 75.0264 193.119 75.0856 193.091C73.5113 195.463 72.0892 197.928 70.8347 200.501C70.8839 199.471 70.737 198.393 70.7109 197.347C70.6006 194.731 71.2108 192.16 71.3857 189.564C71.4612 188.386 71.7616 183.613 70.0718 183.16C68.5934 182.771 67.6117 185.469 67.4272 186.481C67.0078 188.892 67.713 191.923 68.1926 194.323C68.4162 195.477 70.1019 199.366 70.4642 201.27C69.3105 203.681 68.2936 206.169 67.4282 208.72C67.4275 207.495 67.0363 206.233 66.7804 204.988C66.281 202.394 66.4552 199.768 66.2396 197.135C66.1352 195.953 65.6705 191.149 63.9574 190.964C62.4396 190.799 61.8961 193.64 61.8915 194.656C61.8481 197.119 63.0148 200.026 63.8673 202.359C64.2863 203.532 66.8293 207.543 67.277 209.27C66.9433 210.308 66.6096 211.347 66.3066 212.416C65.0522 216.796 64.2352 221.29 63.7804 225.881C63.3595 225.23 62.894 224.593 62.4739 223.972C60.9938 221.716 60.136 219.174 58.9221 216.775C58.3708 215.703 56.0742 211.354 54.4375 211.828C53.0092 212.246 53.6206 215.127 54.0198 216.106C54.9469 218.425 57.1475 220.726 58.8131 222.612C59.4915 223.373 62.1337 225.354 63.6997 226.85C63.3158 231.278 63.2924 235.744 63.6289 240.217C63.1743 239.416 62.7205 238.644 62.3419 237.89C61.4252 235.989 60.5678 234.06 59.8441 232.088C58.703 229.003 57.8888 225.804 57.6282 222.573C57.4972 220.927 55.2646 220.344 54.46 221.731C54.4315 221.79 54.403 221.849 54.3745 221.908C53.2047 224.274 54.2514 227.178 55.363 229.681C56.2051 231.595 60.6902 241.963 63.882 243.149C64.4595 248.269 65.5007 253.354 66.9441 258.343C65.5555 256.148 64.7 253.696 63.5183 251.386C62.967 250.315 60.6703 245.966 59.0336 246.44C57.6054 246.858 58.2322 249.754 58.6159 250.718C59.5431 253.037 61.7436 255.338 63.4093 257.224C64.0109 257.909 66.2104 259.567 67.7741 260.973C69.0415 264.913 70.5619 268.783 72.3345 272.553C71.9511 272.202 71.5531 271.865 71.1696 271.514C69.1902 269.665 67.7094 267.38 65.95 265.342C65.1479 264.429 61.8634 260.732 60.4163 261.598C59.1616 262.364 60.4722 265.035 61.0929 265.884C62.5677 267.931 65.2486 269.659 67.3221 271.076C68.176 271.661 71.2055 272.948 73.0609 274.032C74.4513 276.898 75.9748 279.693 77.6167 282.43C75.824 280.855 74.3229 278.957 72.6171 277.264C71.7565 276.41 68.1788 272.975 66.8247 273.963C65.6322 274.82 67.1505 277.405 67.845 278.211C69.4822 280.157 72.277 281.648 74.4368 282.917C75.1516 283.335 77.314 284.112 79.1466 284.882C82.3901 289.937 82.3005 297.747 86.338 302.191C83.0854 297.972 83.9038 290.536 81.2728 286.001Z" fill="white"/>
<path d="M14.9027 242.856C11.3949 237.558 7.88717 230.439 11.562 225.223C14.3181 221.332 19.9974 220.587 24.5074 222.243C28.2657 223.65 30.8548 226.299 33.8614 228.783C36.7011 231.184 38.8726 228.617 39.5407 225.223C39.9583 223.071 39.6242 220.836 39.0396 218.766C37.6198 213.716 34.7802 209.163 32.5251 204.362C30.3537 199.56 28.6833 194.179 29.8526 189.046C30.7713 185.073 34.279 181.099 38.3715 181.679C40.6265 182.01 42.4639 183.5 44.0507 185.156C44.6353 185.735 45.3035 186.397 46.1387 186.563C54.6576 188.219 51.3168 153.698 51.0663 148.979C50.3981 138.051 50.5652 126.379 56.1609 116.941C59.2511 111.809 64.7633 107.256 70.7767 108.249C75.9548 109.077 79.7132 113.796 81.0494 118.763C82.3857 123.73 81.7176 129.028 80.9659 134.161C79.6296 144.012 78.2933 153.863 77.0406 163.797C76.7065 166.612 76.2889 169.592 77.6252 172.076C83.2209 182.755 103.265 159.079 104.936 176.215C105.186 179.03 104.351 181.761 103.349 184.328C101.01 190.537 97.8367 196.414 95.3311 202.623C93.0761 208.17 90.0695 216.117 91.5728 222.16C92.7421 226.962 98.5884 228.121 102.848 227.872C107.191 227.624 112.118 227.044 115.209 230.025C118.215 232.922 117.631 237.31 116.378 240.869C114.791 245.174 111.701 247.327 108.36 250.39C100.509 257.509 92.8256 264.877 85.3089 272.41C83.4715 274.314 81.5506 276.384 81.133 278.95C80.0472 286.07 87.4804 282.675 91.1552 284C94.4124 285.159 97.085 288.553 96.0828 291.864C95.5817 293.52 94.3289 294.762 93.0761 295.921C86.3946 302.047 78.4604 307.428 69.9415 310.988C58.8335 315.623 57.5807 308.504 51.8179 299.646C39.6242 280.606 27.2635 261.731 14.9027 242.856Z" fill="url(#paint3_linear)"/>
<path opacity="0.38" d="M64.7638 142.19C64.7638 141.114 63.0099 141.114 63.0099 142.19C62.0077 198.897 62.2582 255.687 63.8451 312.395C63.8451 313.471 65.599 313.471 65.599 312.395C64.0121 255.687 63.7616 198.98 64.7638 142.19Z" fill="white"/>
<path d="M118.884 239.71C120.053 234.411 119.552 228.782 117.297 223.898C114.206 216.944 107.943 211.232 107.107 203.699C106.523 198.649 108.611 193.682 110.365 188.88C114.791 176.545 117.046 163.548 117.046 150.468C117.046 142.769 114.875 133.332 107.274 131.511C99.9248 129.772 93.4104 137.14 91.2389 144.342C85.6431 162.638 94.2455 183.913 85.3091 200.884C81.9683 207.175 76.4561 212.308 74.2846 219.096C70.8603 229.693 76.4561 241.696 72.7813 252.21C70.6098 258.667 65.0975 263.8 63.9283 270.505C63.0931 274.893 64.2624 279.363 65.5987 283.585C67.7701 290.705 71.5285 306.103 78.2935 312.891C80.9661 312.974 83.6387 313.139 86.3948 313.222C88.0652 313.305 89.7355 313.305 91.4059 313.305C93.5774 313.139 95.6654 313.056 97.8368 313.056C103.6 309.662 108.611 304.447 111.116 300.308C117.13 290.374 118.132 278.039 115.877 266.614C115.125 262.806 114.123 258.998 114.374 255.19C114.791 249.809 117.714 244.925 118.884 239.71Z" fill="#544695"/>
<path opacity="0.2" fill-rule="evenodd" clip-rule="evenodd" d="M100.635 156.14C100.676 154.795 100.718 153.45 100.76 152.125C100.843 151.049 102.514 151.049 102.514 152.125C102.472 153.446 102.431 154.787 102.389 156.128L102.389 156.128L102.389 156.14C102.347 157.485 102.305 158.83 102.263 160.155C102.18 161.231 100.509 161.231 100.509 160.155C100.551 158.83 100.593 157.485 100.635 156.14ZM92.8674 241.034C95.0598 216.944 97.2522 192.854 99.4237 168.763C99.5072 167.604 101.261 167.604 101.178 168.763C99.0061 192.853 96.8138 216.943 94.6215 241.033L94.6214 241.034C92.429 265.124 90.2366 289.214 88.0652 313.305C87.9816 314.381 86.2277 314.381 86.3113 313.305C88.4827 289.215 90.6751 265.125 92.8674 241.034ZM76.3723 277.46C77.291 279.281 78.4602 280.771 80.0471 282.095C80.8823 282.84 79.6295 284.082 78.7943 283.337C77.1239 281.93 75.7876 280.191 74.8689 278.287C74.3678 277.294 75.8711 276.466 76.3723 277.46ZM85.0585 234.163C84.5574 233.336 84.0562 232.528 83.5551 231.721C83.054 230.914 82.5529 230.107 82.0518 229.279C81.4672 228.369 79.9639 229.196 80.5485 230.107C81.0496 230.935 81.5507 231.742 82.0518 232.549C82.553 233.356 83.0541 234.163 83.5552 234.991C84.1398 235.985 85.6431 235.074 85.0585 234.163ZM103.767 232.59C104.936 231.514 106.022 230.272 106.94 228.948C107.525 228.037 109.028 228.865 108.527 229.858C107.525 231.348 106.356 232.673 105.02 233.832C104.184 234.577 102.932 233.335 103.767 232.59ZM102.932 278.371C101.595 280.026 100.092 281.516 98.4217 282.841C97.5865 283.586 98.7558 284.745 99.6745 284.083C101.345 282.758 102.848 281.268 104.184 279.612C104.853 278.784 103.6 277.543 102.932 278.371ZM90.1121 206.182C90.4253 206.617 90.7385 207.051 91.0725 207.507C91.7407 208.417 90.2373 209.245 89.5692 208.335C89.2351 207.879 88.9219 207.445 88.6088 207.01C88.2956 206.576 87.9824 206.141 87.6483 205.686C86.9801 204.858 88.4834 203.947 89.1516 204.858C89.4855 205.313 89.7985 205.747 90.1115 206.181L90.1121 206.182ZM108.778 175.055C108.318 175.511 107.88 175.987 107.441 176.463C107.003 176.939 106.564 177.415 106.105 177.87C105.353 178.698 106.606 179.94 107.358 179.112C107.817 178.657 108.256 178.181 108.694 177.705L108.694 177.705L108.694 177.704L108.694 177.704C109.133 177.228 109.571 176.752 110.03 176.297C110.699 175.386 109.529 174.227 108.778 175.055ZM82.9709 261.068C82.3027 260.158 81.6346 259.226 80.9665 258.295L80.9657 258.294C80.2978 257.363 79.6299 256.432 78.962 255.522C78.2939 254.611 76.7905 255.522 77.4587 256.35C78.1266 257.26 78.7945 258.191 79.4624 259.122L79.4631 259.123C80.1313 260.054 80.7994 260.985 81.4676 261.896C82.0522 262.807 83.5555 261.979 82.9709 261.068ZM97.5026 260.903L101.428 257.012C102.263 256.184 103.432 257.426 102.681 258.254L98.7554 262.144C97.9202 262.889 96.7509 261.648 97.5026 260.903Z" fill="white"/>
<path d="M63.0933 294.927C61.1724 294.265 59.0844 294.431 57.08 294.513C58.6668 293.437 60.4207 292.361 61.4229 290.705C62.4251 289.05 62.6757 286.732 61.3394 285.324C59.4185 283.172 55.8272 284.248 53.1546 285.573C55.6601 280.026 57.8316 274.231 59.5855 268.354C60.5877 265.125 61.2559 261.151 58.7503 258.833C56.4953 256.681 51.4842 257.095 49.6468 259.578C50.2314 255.274 51.0666 250.969 49.9809 246.581C48.8951 242.276 45.5544 238.303 41.2114 237.806C36.6179 237.309 32.442 240.704 29.9364 244.512C26.2616 250.058 24.9253 256.847 25.0088 263.552C25.0923 268.519 25.9275 273.403 27.0133 278.205C27.4308 280.192 28.6836 282.013 26.5957 282.758C25.0088 283.337 21.501 282.013 19.5801 282.261C16.9075 282.675 14.1514 284.248 13.2327 286.814C11.8129 290.622 14.736 294.513 17.4921 297.411C22.5032 302.709 28.3496 309.497 35.2816 312.809C37.3696 312.974 39.374 313.14 41.462 313.305C44.9698 313.305 48.4775 313.305 51.9853 313.305C57.6646 311.236 62.6757 307.262 65.5989 302.047C66.1 301.219 66.5176 300.308 66.5176 299.315C66.6846 297.328 64.9307 295.59 63.0933 294.927Z" fill="#B5ABDE"/>
<path opacity="0.2" fill-rule="evenodd" clip-rule="evenodd" d="M41.0444 248.733C40.9609 247.657 39.207 247.657 39.2905 248.733C40.0004 259.495 40.6894 270.257 41.3785 281.019L41.3785 281.02L41.3785 281.02L41.3785 281.02C42.0675 291.782 42.7565 302.543 43.4664 313.305C43.5499 314.381 45.3038 314.381 45.2203 313.305C43.884 291.781 42.4642 270.257 41.0444 248.733ZM36.9521 268.188C36.3257 267.65 35.7202 267.112 35.1147 266.574C34.5092 266.036 33.9037 265.498 33.2773 264.96C32.4421 264.215 31.2729 265.456 32.1081 266.119C32.7344 266.657 33.3399 267.195 33.9454 267.733L33.9454 267.733L33.9455 267.733C34.551 268.271 35.1565 268.809 35.7829 269.347C36.5345 270.092 37.7038 268.933 36.9521 268.188ZM33.18 295.115C33.7855 295.653 34.391 296.191 35.0174 296.729C35.7691 297.474 34.5998 298.633 33.8481 297.888C33.2218 297.35 32.6163 296.812 32.0108 296.274L32.0107 296.274C31.4052 295.736 30.7997 295.198 30.1733 294.66C29.3381 293.997 30.5074 292.756 31.3426 293.501C31.9688 294.039 32.5742 294.577 33.1796 295.115L33.18 295.115ZM50.6077 267.525L50.6076 267.526C50.1273 268.188 49.6471 268.85 49.146 269.512C48.4779 270.34 49.9812 271.251 50.5658 270.34C51.0669 269.678 51.5471 269.016 52.0273 268.354L52.0274 268.353C52.5076 267.691 52.9879 267.029 53.489 266.367C54.1571 265.456 52.6538 264.628 52.0692 265.539C51.5681 266.201 51.0879 266.863 50.6077 267.525ZM49.6466 294.265C50.4818 293.189 51.484 292.278 52.6533 291.533C53.4885 290.871 54.3236 292.361 53.4885 292.94C52.4862 293.602 51.5675 294.513 50.8159 295.424C50.1477 296.252 48.9785 295.093 49.6466 294.265Z" fill="white"/>
<path d="M251.983 266.418C252.116 266.501 248.001 256.336 258.632 240.769C269.284 224.464 301.573 213.588 301.661 201.72C301.644 189.052 282.717 199.349 270.994 194.565C259.119 189.642 254.767 186.928 265.777 179.822C276.816 172.921 283.621 169.108 279.738 158.948C275.815 148.672 297.286 146.017 304.265 134.688C311.555 123.23 302.187 115.305 283.22 123.339C264.765 131.71 262.868 128.784 267.183 123.67C271.398 118.633 285.97 107.084 276.978 104.549C267.78 102.022 259.097 110.808 262.168 102.046C265.15 93.2721 276.512 83.3368 267.355 78.6037C258.184 73.7681 241.912 80.8835 239.716 103.54C237.699 126.049 236.646 132.517 228.348 138.14C220.311 143.736 208.179 137.141 198.814 145.456C189.588 153.873 195.688 163.733 204.83 168.299C214.146 172.826 230.538 182.598 226.224 191.514C222.179 200.358 210.79 194.04 200.728 196.025C189.549 198.227 181.132 212.076 196.577 222.994C212.316 233.552 232.419 238.892 245.504 272.352C247.606 270.308 249.779 268.347 251.983 266.418Z" fill="url(#paint4_linear)"/>
<path opacity="0.7" fill-rule="evenodd" clip-rule="evenodd" d="M246.196 252.894C246.504 252.809 246.738 252.562 246.69 252.306C228.299 153.337 259.695 103.354 260.022 102.855C260.182 102.598 260.053 102.318 259.75 102.213C259.428 102.116 259.045 102.242 258.879 102.485C258.552 102.984 226.962 153.251 245.422 252.521C245.477 252.792 245.8 252.94 246.149 252.893C246.149 252.893 246.176 252.901 246.196 252.894ZM237.179 171.498C237.282 171.481 237.357 171.408 237.406 171.309C237.483 171.102 237.358 170.828 237.132 170.685C236.99 170.598 222.233 161.583 205.415 155.134C205.186 155.042 204.967 155.162 204.94 155.386C204.92 155.625 205.093 155.884 205.322 155.976C221.826 162.3 236.309 171.095 236.852 171.424L236.866 171.433C236.981 171.495 237.087 171.511 237.179 171.498ZM244.684 161.929C244.602 161.996 244.522 162.022 244.423 162.055C244.195 162.111 243.933 162.057 243.726 161.885C243.471 161.667 243.449 161.312 243.713 161.103C267.103 142.05 298.694 131.241 299.013 131.135C299.382 130.992 299.747 131.153 299.899 131.444C300.052 131.736 299.919 132.062 299.581 132.174C299.263 132.28 267.91 143.009 244.684 161.929ZM247.061 223.476C247.146 223.453 247.231 223.43 247.294 223.36C260.281 212.239 286.498 203.89 288.131 203.37L288.135 203.369C288.177 203.355 288.202 203.348 288.209 203.345C288.49 203.251 288.612 202.974 288.482 202.731C288.344 202.472 288.031 202.331 287.75 202.426C287.743 202.428 287.718 202.436 287.675 202.45L287.671 202.451C286.029 202.973 259.598 211.383 246.488 222.64C246.282 222.818 246.291 223.129 246.516 223.329C246.672 223.46 246.884 223.507 247.061 223.476ZM234.589 227.031L234.589 227.031C234.429 227.067 234.237 227.003 234.1 226.889C219.989 212.545 197.59 204.881 197.363 204.813C197.109 204.721 196.939 204.475 197.005 204.248C197.071 204.021 197.322 203.908 197.57 203.986C197.797 204.055 220.444 211.797 234.745 226.332C234.936 226.524 234.939 226.792 234.756 226.946C234.714 226.991 234.645 227.013 234.589 227.031Z" fill="#B0AFFD"/>
<path d="M239.188 240.135C239.462 240.468 239.633 240.764 239.656 240.987C239.564 240.272 239.301 239.611 238.981 238.95C237.947 233.2 237.21 227.42 236.836 221.637C236.777 220.467 236.718 219.296 236.682 218.115C238.524 216.153 243.63 213.02 244.801 211.828C247.233 209.399 250.428 206.449 251.857 203.228C252.447 201.884 253.488 197.801 251.505 196.965C249.261 195.996 245.798 201.887 244.958 203.355C243.119 206.602 241.77 210.164 239.589 213.17C238.589 214.541 237.419 215.85 236.647 217.342C236.479 212.101 236.608 206.889 237.055 201.695C238.793 199.755 244.071 196.508 245.264 195.305C247.696 192.877 250.891 189.926 252.32 186.705C252.91 185.361 253.951 181.279 251.969 180.443C249.724 179.473 246.261 185.364 245.421 186.832C243.582 190.079 242.233 193.641 240.052 196.648C239.075 198.007 237.893 199.292 237.144 200.773C237.648 195.288 238.493 189.869 239.76 184.564C240.608 180.898 241.683 177.296 242.907 173.767C245.604 172.642 249.427 171.458 250.564 170.838C253.556 169.158 257.423 167.191 259.639 164.489C260.559 163.362 262.614 159.745 260.893 158.4C258.944 156.875 254.067 161.592 252.885 162.76C250.26 165.372 248.045 168.424 245.145 170.703C244.634 171.102 244.088 171.488 243.553 171.898C245.299 167.175 247.352 162.564 249.725 158.147C250.942 157.868 252.103 157.354 253.297 156.969C256.278 155.967 259.489 155.787 262.607 155.127C264.007 154.817 269.64 153.53 269.466 151.422C269.303 149.571 265.751 149.334 264.522 149.472C261.551 149.797 258.332 151.648 255.75 153.01C254.806 153.505 252.441 155.49 250.44 156.887C251.586 154.83 252.767 152.784 254.05 150.776C256.083 147.638 258.31 144.609 260.661 141.723C262.187 141.556 263.631 140.872 265.111 140.377C268.092 139.374 271.302 139.195 274.397 138.545C275.797 138.235 281.43 136.948 281.256 134.84C281.094 132.989 277.542 132.752 276.312 132.891C273.342 133.215 270.123 135.066 267.541 136.428C266.46 136.99 263.424 139.57 261.309 140.906C264.479 137.09 267.923 133.489 271.652 130.187C272.949 129.898 274.189 129.316 275.441 128.874C278.422 127.813 281.632 127.575 284.693 126.855C286.081 126.521 291.692 125.129 291.461 123.019C291.264 121.156 287.701 121.013 286.483 121.175C283.535 121.546 280.35 123.468 277.791 124.877C277.461 125.069 276.915 125.455 276.301 125.934C274.14 127.292 272.025 128.745 269.99 130.305C269.91 130.315 269.808 130.336 269.751 130.335C269.831 130.325 269.887 130.326 269.967 130.316C267.193 132.446 264.555 134.741 262.066 137.227C262.542 136.056 262.813 134.752 263.21 133.533C264.15 130.465 265.899 127.73 267.158 124.798C267.725 123.465 270.016 118.064 268.261 116.882C266.722 115.857 264.495 118.594 263.871 119.691C262.407 122.315 261.98 126.095 261.552 129.056C261.338 130.478 261.688 135.629 261.327 137.972C259.02 140.309 256.838 142.79 254.804 145.402C255.303 143.986 255.369 142.374 255.583 140.835C256.067 137.641 257.337 134.674 258.164 131.546C258.526 130.139 259.951 124.404 258.06 123.523C256.385 122.741 254.602 125.814 254.183 126.986C253.129 129.817 253.283 133.632 253.311 136.661C253.313 138.181 254.597 143.808 254.407 145.978C253.6 147.049 252.794 148.12 252.01 149.238C248.784 153.813 246.014 158.69 243.62 163.82C243.402 162.904 243.128 161.986 242.899 161.104C242.119 157.92 242.171 154.647 241.756 151.4C241.56 149.946 240.697 144.024 238.625 143.934C236.815 143.862 236.342 147.43 236.401 148.717C236.52 151.76 238.108 155.277 239.251 158.106C239.719 159.25 241.945 162.57 243.132 164.909C240.886 169.879 239.039 175.032 237.601 180.334C237.406 179.231 237.199 178.162 237.073 177.142C236.795 174.588 236.598 172.023 236.571 169.462C236.519 165.451 236.888 161.436 237.907 157.599C238.427 155.646 236.102 154.101 234.613 155.392C234.556 155.449 234.499 155.506 234.443 155.564C232.135 157.843 232.153 161.608 232.408 164.934C232.595 167.475 233.516 181.208 236.696 183.822C235.272 189.966 234.394 196.25 234.017 202.58C233.317 199.502 233.335 196.334 232.92 193.203C232.724 191.75 231.861 185.827 229.789 185.738C227.979 185.665 227.518 189.257 227.565 190.521C227.684 193.563 229.272 197.08 230.415 199.91C230.826 200.935 232.675 203.709 233.897 205.944C233.745 210.992 233.913 216.058 234.41 221.108C234.113 220.552 233.794 220.008 233.497 219.452C231.978 216.544 231.21 213.325 230.022 210.284C229.473 208.916 227.21 203.363 225.196 203.801C223.443 204.197 223.859 207.795 224.225 209.019C225.083 211.959 227.456 215.001 229.259 217.447C230 218.456 232.953 221.124 234.641 223.1C235.069 226.955 235.678 230.78 236.447 234.584C235.031 232.064 234.082 229.285 232.814 226.663C232.174 225.341 229.468 219.977 227.511 220.591C225.792 221.117 226.481 224.697 226.95 225.9C228.036 228.786 230.636 231.599 232.598 233.908C233.248 234.67 235.414 236.41 237.204 238.013C238.866 245.121 235.579 254.115 238.401 260.825C236.388 254.681 240.359 246.403 239.188 240.135Z" fill="white"/>
<path d="M213.865 223.049C209.667 218.907 207.066 213.333 207.066 207.436V193.657L196.139 190.709V208.847H172.503C162.486 208.847 154.365 200.726 154.365 190.709L143.438 193.657V207.436C143.438 213.333 140.837 218.907 136.639 223.049C125.305 234.232 103.778 258.572 103.778 282.123C103.778 295.609 103.778 301.261 103.778 307.181C103.778 309.686 105.791 311.707 108.274 311.707H175.274H242.274C244.758 311.707 246.771 309.686 246.771 307.181C246.771 301.261 246.771 295.609 246.771 282.123C246.738 258.571 225.202 234.232 213.865 223.049Z" fill="url(#paint5_linear)"/>
<path fill-rule="evenodd" clip-rule="evenodd" d="M175.274 178.92C86.1708 178.92 79.037 203.782 79.2813 212.52C74.1203 212.52 79.2813 218.068 79.2813 221.926C109.484 238.74 127.775 223.665 128.291 216.157C128.497 213.169 125.412 209.852 127.093 207.373C137.287 192.342 175.229 192.342 175.229 192.342C175.229 192.342 216.747 192.342 224.591 209.547C225.262 211.017 223.199 211.653 222.754 213.206C222.702 213.39 222.737 213.619 222.781 213.805C229.255 240.79 270.862 231.464 273.895 213.74C273.92 213.592 273.937 213.412 273.905 213.265C273.55 211.622 271.269 211.122 270.993 209.463C269.264 199.068 255.537 178.92 175.274 178.92Z" fill="url(#paint6_linear)"/>
<path d="M175.834 298.137C193.796 300.106 207.221 283.967 207.221 266.487C209.085 249.321 193.169 234.836 175.834 234.836C158.048 232.544 144.448 249.007 144.448 266.487C144.448 283.967 158.5 298.137 175.834 298.137Z" fill="white"/>
<path d="M175.723 281.515C184.041 281.515 191.796 274.229 190.784 266.389C189.213 258.264 183.821 250.681 175.502 250.681C167.184 250.681 162.785 257.665 161.196 265.847C161.196 274.201 167.405 281.515 175.723 281.515Z" fill="url(#paint7_linear)"/>
<path d="M152.227 270.432C154.388 270.432 157.669 268.706 157.669 266.527C157.669 264.348 155.133 261.791 152.972 261.791C150.811 261.791 148.315 264.308 148.315 266.487C148.315 268.665 150.066 270.432 152.227 270.432Z" fill="url(#paint8_linear)"/>
<path d="M201.645 275.963C202.384 273.916 199.873 271.378 197.843 270.633C195.813 269.887 195.032 271.217 194.293 273.265C193.554 275.312 194.601 277.576 196.631 278.321C198.662 279.066 200.906 278.01 201.645 275.963Z" fill="url(#paint9_linear)"/>
<path d="M199.288 262.045C201.318 261.299 202.365 259.036 201.626 256.988C200.887 254.941 197.85 254.017 195.82 254.762C193.789 255.507 193.535 257.639 194.274 259.687C195.013 261.734 197.257 262.79 199.288 262.045Z" fill="url(#paint10_linear)"/>
<path d="M160.295 284.798C161.95 283.398 162.166 280.909 160.778 279.24C159.389 277.571 156.921 275.353 155.266 276.754C153.611 278.154 153.395 282.643 154.784 284.312C156.172 285.981 158.64 286.199 160.295 284.798Z" fill="url(#paint11_linear)"/>
<path d="M191.01 247.863C192.09 245.976 191.449 243.563 189.578 242.474C187.707 241.384 185.315 242.031 184.234 243.918C183.154 245.804 182.363 248.684 184.234 249.774C186.106 250.863 189.93 249.749 191.01 247.863Z" fill="url(#paint12_linear)"/>
<path d="M176.484 291.264C176.859 289.118 174.528 286.351 172.401 285.973C170.273 285.594 168.244 287.027 167.869 289.173C167.494 291.318 168.915 293.364 171.042 293.743C173.17 294.121 176.109 293.41 176.484 291.264Z" fill="url(#paint13_linear)"/>
<path d="M172.406 246.931C174.534 246.553 177.084 244.438 176.709 242.292C176.334 240.146 173.176 238.783 171.048 239.161C168.92 239.539 167.5 241.585 167.875 243.731C168.25 245.877 170.279 247.309 172.406 246.931Z" fill="url(#paint14_linear)"/>
<path d="M190.606 290.774C192.477 289.684 193.118 287.272 192.038 285.385C190.957 283.498 188.565 282.852 186.694 283.941C184.823 285.03 184.306 288.887 185.387 290.774C186.467 292.661 188.735 291.863 190.606 290.774Z" fill="url(#paint15_linear)"/>
<path d="M160.759 253.75C162.147 252.081 161.932 249.593 160.277 248.192C158.622 246.792 155.19 246.037 153.801 247.706C152.413 249.375 153.11 252.349 154.765 253.75C156.42 255.15 159.37 255.419 160.759 253.75Z" fill="url(#paint16_linear)"/>
<g filter="url(#filter0_d)">
<path d="M431.844 126.34L356.828 113.282C351.933 112.43 347.281 115.74 346.436 120.676L337.984 170.049C337.139 174.985 340.422 179.676 345.316 180.528L420.333 193.587C425.227 194.439 429.88 191.128 430.725 186.193L439.176 136.819C440.021 131.884 436.739 127.192 431.844 126.34Z" fill="url(#paint17_linear)"/>
</g>
<path fill-rule="evenodd" clip-rule="evenodd" d="M348.385 117.98C348.564 117.815 348.842 117.828 349.006 118.008L382.909 155.362C385.482 158.197 389.633 158.915 392.995 157.106L437.432 133.199C437.646 133.084 437.912 133.166 438.026 133.382C438.141 133.598 438.06 133.866 437.846 133.981L393.409 157.887C389.692 159.887 385.105 159.094 382.261 155.961L348.358 118.606C348.194 118.426 348.206 118.146 348.385 117.98Z" fill="#3FC0AD"/>
<g filter="url(#filter1_d)">
<path d="M407.947 172.047H233.931C228.964 172.047 224.938 176.107 224.938 181.116V302.247C224.938 307.256 228.964 311.316 233.931 311.316H407.947C412.913 311.316 416.94 307.256 416.94 302.247V181.116C416.94 176.107 412.913 172.047 407.947 172.047Z" fill="url(#paint18_linear)"/>
<path fill-rule="evenodd" clip-rule="evenodd" d="M226.145 176.505C226.37 176.205 226.792 176.145 227.09 176.371L315.511 243.561C318.478 245.816 322.568 245.813 325.533 243.555L413.711 176.372C414.008 176.145 414.431 176.205 414.656 176.504C414.88 176.804 414.821 177.231 414.524 177.457L326.346 244.64C322.901 247.265 318.148 247.268 314.7 244.648L226.278 177.457C225.981 177.231 225.921 176.805 226.145 176.505Z" fill="#5084C1"/>
</g>
<g filter="url(#filter2_d)">
<path d="M314.794 144.67L276.5 151.785C271.615 152.693 268.385 157.421 269.285 162.347L273.441 185.089C274.341 190.014 279.03 193.271 283.914 192.364L322.209 185.248C327.093 184.341 330.323 179.612 329.423 174.687L325.268 151.945C324.368 147.02 319.679 143.762 314.794 144.67Z" fill="url(#paint19_linear)"/>
</g>
<path fill-rule="evenodd" clip-rule="evenodd" d="M323.96 148.879C324.15 149.041 324.173 149.327 324.012 149.518L305.851 171.124C302.969 174.553 298.101 175.482 294.175 173.353L269.946 160.212C269.728 160.093 269.646 159.818 269.763 159.598C269.881 159.377 270.154 159.295 270.372 159.413L294.601 172.554C298.153 174.48 302.557 173.64 305.165 170.537L323.326 148.931C323.487 148.74 323.771 148.717 323.96 148.879Z" fill="#FC7370"/>
<path d="M37.3625 215.643C38.0192 217.133 41.4668 219.009 42.5613 219.561C43.9841 220.389 45.6806 221.327 46.8298 221.989C46.8298 222.044 46.8845 222.044 46.8845 222.044C46.3373 222.154 44.6408 225.245 44.6408 225.245C41.6857 224.417 36.6511 218.347 35.6661 215.643C34.6263 212.828 36.268 213.27 37.3625 215.643Z" fill="#9D695C"/>
<g filter="url(#filter3_d)">
<path d="M50.2571 191.111L22.4764 196.273C20.3044 196.677 18.8656 198.766 19.2627 200.939L22.5459 218.907C22.9429 221.08 25.0256 222.514 27.1975 222.111L54.9783 216.949C57.1502 216.545 58.5891 214.457 58.192 212.283L54.9088 194.316C54.5117 192.142 52.4291 190.708 50.2571 191.111Z" fill="url(#paint20_linear)"/>
</g>
<path d="M19.8979 201.648L32.1008 207.751C36.1586 209.78 41.0741 208.824 44.0746 205.42L53.9017 194.274" stroke="#FFC20A" stroke-width="1.5" stroke-miterlimit="10" stroke-linecap="round"/>
<path d="M43.6018 220.5C43.6018 219.948 39.9353 217.133 41.1393 216.471C42.2885 215.809 46.4475 221.438 46.8306 221.99C45.6814 221.327 43.6018 220.5 43.6018 220.5Z" fill="#9D695C"/>
<path fill-rule="evenodd" clip-rule="evenodd" d="M91.4877 325.513C99.3132 323.692 95.5373 247.428 86.3436 242.075C83.7886 240.572 72.898 242.567 72.3551 242.677L69.5417 242.075C61.3878 260.617 54.4926 324.133 61.0595 323.692C61.0595 323.692 65.2185 326.617 67.7906 317.401C67.7906 317.401 73.5354 294.847 77.1277 274.374C80.2802 291.94 83.8263 310.006 83.8263 310.006C85.085 328.879 91.4877 325.513 91.4877 325.513Z" fill="#4F586B"/>
<path d="M64.7792 323.306C64.7792 323.306 65.4359 329.708 63.7942 329.708C63.7942 329.708 62.5355 326.231 61.5505 326.507C61.5505 326.507 55.8045 329.708 53.5608 329.708C53.5608 329.708 57.0084 325.293 60.1824 323.306H64.7792Z" fill="#3B455A"/>
<path d="M87.9829 324.3C87.9829 324.3 86.8337 330.646 88.4207 330.756C88.4207 330.756 89.9529 327.39 90.8833 327.721C90.8833 327.721 96.3557 331.363 98.5994 331.529C98.5994 331.529 95.4801 326.838 92.525 324.631L87.9829 324.3Z" fill="#3B455A"/>
<path d="M70.6908 196.77C70.6908 200.522 72.8798 203.557 75.5065 203.557C78.188 203.557 80.3223 200.522 80.3223 196.77C80.3223 193.017 78.1333 189.982 75.5065 189.982C72.8798 189.982 70.6908 193.017 70.6908 196.77Z" fill="#9D695C"/>
<path d="M68.6393 211.364C69.5149 213.682 74.6849 217.464 75.5605 217.464C77.8589 217.464 81.0877 212.939 82.8936 210.124L79.227 201.184L73.9735 201.902C73.9735 201.902 74.083 202.454 74.1924 203.281C74.1924 203.447 74.2471 203.668 74.2471 203.888C74.5207 206.427 70.5546 209.157 68.6393 211.364Z" fill="#9D695C"/>
<path d="M42.8356 226.458C42.8356 226.458 50.9348 238.433 60.402 235.84C60.402 235.84 63.4666 235.177 65.8745 233.853C66.4217 233.577 66.9142 233.246 67.2973 232.915C67.2973 232.915 67.2973 233.191 67.2426 233.577C67.1331 235.674 66.8595 242.02 68.556 242.738C68.556 242.738 80.048 247.263 88.2019 243.952C88.4756 243.841 88.7492 243.731 89.0228 243.62C89.0228 243.62 89.0228 243.62 89.0775 243.565C90.2815 242.848 104.236 233.963 101.336 227.176C101.336 227.176 86.5602 208.413 82.839 210.069C79.1177 211.724 77.4964 213.55 75.1432 213.55C74.2676 213.55 74.6271 214.877 72.715 213.049C72.1753 212.457 69.991 211.381 69.8268 211.546C63.3491 209.907 59.5593 222.688 55.4003 224.454C51.2412 226.22 49.4025 219.45 47.2682 219.56C45.2435 219.726 42.7261 225.41 42.8356 226.458Z" fill="url(#paint21_linear)"/>
<path d="M73.8107 193.459C67.9552 195.059 70.0347 187.775 75.2335 186.892C80.4323 186.009 82.676 186.616 83.0043 191.859C83.3874 197.156 89.5712 195.059 88.6409 199.364C87.7106 203.723 95.0437 202.95 95.8098 210.566C96.6307 218.181 94.9889 220.002 93.4566 220.333C90.5015 220.94 85.7405 219.395 84.865 215.974C81.9646 205.213 77.6414 204.992 77.915 199.584C78.4075 190.976 75.9449 192.907 73.8107 193.459Z" fill="#3B455A"/>
<path d="M74.1925 203.281C74.1925 203.447 74.2472 203.667 74.2472 203.888C75.6153 203.667 76.5456 202.895 76.6003 202.839C75.8342 203.171 74.9039 203.281 74.1925 203.281Z" fill="#9D695C"/>
<path d="M67.2967 232.914C67.2967 232.914 67.2967 233.19 67.242 233.577C68.0081 231.038 69.212 227.727 70.416 225.299C72.1671 221.878 68.0628 228.996 65.8191 233.797C66.4211 233.521 66.9136 233.246 67.2967 232.914Z" fill="#5084C1"/>
<path d="M84.3167 237.219C84.3167 237.219 79.6141 236.634 79.4499 237.351C79.4499 237.351 79.7192 238.929 80.9785 238.929C81.0332 238.929 74.5758 240.64 74.7399 241.357C74.9041 242.075 75.3966 242.737 76.4911 242.847C77.2572 242.903 83.7147 242.847 85.7395 241.082L84.3167 237.219Z" fill="#9D695C"/>
<path d="M82.8927 235.509C82.8927 235.509 83.5494 240.42 88.2557 244.007C88.5293 243.896 88.8029 243.786 89.0766 243.676C89.0766 243.676 89.0766 243.676 89.1313 243.621C86.9423 241.248 83.9325 237.661 84.2061 235.564C84.2061 235.564 94.7679 231.922 92.7978 229.107L89.2407 225.244L92.0864 230.266C92.0317 230.266 83.4947 234.019 82.8927 235.509Z" fill="#FC7370"/>
<path d="M161.044 89.2047C168.175 84.8548 172.318 77.4178 172.804 69.6211C172.907 67.9931 172.85 66.35 172.627 64.7154C172.543 64.0936 172.433 63.473 172.3 62.8546C171.742 60.2617 170.756 57.7151 169.317 55.3166C168.083 53.2593 166.599 51.4479 164.927 49.9003C164.649 49.6435 164.367 49.3939 164.08 49.1515C163.598 48.7459 163.103 48.3604 162.597 47.9957C161.264 47.0383 159.848 46.2246 158.371 45.5609C151.298 42.3766 142.843 42.6234 135.712 46.9733C124.147 54.0274 120.443 69.1996 127.438 80.8615C134.433 92.5234 149.479 96.2588 161.044 89.2047Z" fill="url(#paint22_linear)"/>
<path d="M204.512 230.017C204.512 230.017 204.465 230.017 204.465 229.97V229.923C204.465 229.923 204.512 229.923 204.559 229.923C204.512 229.97 204.512 230.017 204.512 230.017ZM206.202 230.158C206.295 230.158 206.389 230.158 206.483 230.205C206.295 230.3 206.295 230.3 206.202 230.158ZM206.765 230.3C206.765 230.253 206.765 230.253 206.765 230.205C206.858 230.205 206.952 230.253 207.093 230.253C206.905 230.394 206.812 230.347 206.765 230.3ZM207.703 230.347C207.797 230.347 207.844 230.347 207.938 230.347C208.125 230.394 208.266 230.394 208.501 230.441C208.266 230.535 208.172 230.488 207.703 230.347ZM210.143 230.677C210.096 230.677 210.049 230.677 210.002 230.677V230.629C210.049 230.629 210.096 230.63 210.143 230.677ZM210.753 230.724C210.706 230.724 210.659 230.724 210.659 230.724V230.677C210.706 230.677 210.753 230.677 210.753 230.677V230.724Z" fill="#FFC20A"/>
<path d="M207.375 228.697C207.421 228.651 207.421 228.651 207.375 228.697C207.421 228.651 207.375 228.651 207.375 228.651C207.375 228.651 207.375 228.651 207.375 228.697C207.375 228.651 207.375 228.651 207.375 228.697Z" fill="#FFC20A"/>
<path d="M206.812 229.687C206.859 229.687 206.905 229.687 206.952 229.687C207.187 229.829 207.422 229.687 207.703 229.734C207.703 229.687 207.703 229.687 207.703 229.64C207.234 229.593 206.812 229.546 206.295 229.452C206.436 229.64 206.624 229.687 206.812 229.687Z" fill="#FFC20A"/>
<path d="M205.826 232.985C206.014 233.032 206.248 233.032 206.436 233.174C206.53 233.221 206.718 233.221 206.859 233.221C206.952 233.221 206.999 233.221 207.046 233.079C206.624 232.985 206.202 232.891 205.826 232.985Z" fill="#FFC20A"/>
<path d="M208.595 228.839C208.36 228.651 208.125 228.698 207.891 228.698C208.079 228.839 208.313 228.886 208.595 228.839Z" fill="#FFC20A"/>
<path d="M196.911 195.012C196.911 195.012 196.911 194.965 196.911 195.012C196.864 194.965 196.817 194.965 196.723 194.965V195.012C196.817 195.012 196.864 195.012 196.911 195.012Z" fill="#FFC20A"/>
<path d="M209.674 234.351C209.627 234.351 209.627 234.351 209.627 234.351C209.627 234.351 209.627 234.351 209.58 234.399C209.58 234.351 209.627 234.399 209.674 234.351C209.674 234.399 209.674 234.351 209.674 234.351Z" fill="#FFC20A"/>
<path d="M210.284 233.362C210.331 233.362 210.378 233.409 210.425 233.409C210.378 233.362 210.331 233.315 210.284 233.362C210.284 233.315 210.284 233.315 210.284 233.362Z" fill="#FFC20A"/>
<path d="M210.566 233.268C210.519 233.315 210.472 233.362 210.472 233.409C210.472 233.362 210.519 233.315 210.566 233.268Z" fill="#FFC20A"/>
<path d="M208.829 234.257C208.829 234.304 208.829 234.304 208.829 234.352C208.97 234.352 209.111 234.352 209.299 234.352V234.304C209.158 234.304 209.017 234.304 208.829 234.257Z" fill="#FFC20A"/>
<path d="M208.407 234.304C208.454 234.304 208.454 234.352 208.501 234.352C208.548 234.352 208.595 234.352 208.642 234.304C208.595 234.304 208.548 234.257 208.501 234.257C208.501 234.304 208.454 234.304 208.407 234.304Z" fill="#FFC20A"/>
<path d="M205.31 229.499C205.31 229.499 205.357 229.499 205.404 229.452C205.404 229.405 205.404 229.358 205.357 229.358C205.357 229.358 205.357 229.358 205.31 229.358C205.216 229.405 205.169 229.405 205.075 229.452C205.169 229.452 205.263 229.452 205.31 229.499Z" fill="#FFC20A"/>
<path d="M163.328 215.321L158.354 220.739L163 222.058L167.223 219.09L163.328 215.321Z" fill="#EFBFA5"/>
<path d="M214.06 175.303C214.06 175.303 156.993 212.258 160.888 217.629L165.815 221.822C165.815 221.822 216.922 193.771 220.723 187.081C224.477 180.438 214.06 175.303 214.06 175.303Z" fill="#FC7370"/>
<path d="M163.14 222.011C163.14 222.011 163.938 225.591 161.357 225.261C161.357 225.261 150.236 223.66 149.861 222.953C149.861 222.953 148.359 221.964 158.354 220.739L163.14 222.011Z" fill="#4F586B"/>
<path d="M210.894 231.524C210.894 231.524 212.161 235.058 210.096 235.294C210.096 235.294 201.368 236.189 200.946 235.576C200.946 235.576 199.632 234.917 207.046 231.572L210.894 231.524Z" fill="#4F586B"/>
<path fill-rule="evenodd" clip-rule="evenodd" d="M213.672 175.407C213.188 173.603 213.006 172.257 213.006 172.257L226.989 169.76C228.779 172.338 229.135 174.898 228.78 177.2C230.459 191.381 194.236 195.954 194.236 195.954C207.891 206.79 210.894 231.525 210.894 231.525L206.389 231.854C197.99 227.708 183.209 195.201 183.209 195.201C181.461 191.471 182.969 188.641 183.146 188.307C183.159 188.283 183.165 188.272 183.162 188.275C184.536 184.958 200.981 178.373 213.672 175.407Z" fill="#FC7370"/>
<path d="M218.449 147.381C217.088 150.161 214.554 154.684 212.443 154.919C211.645 155.014 210.472 153.223 209.44 151.198C210.519 149.643 210.566 147.193 210.331 145.026C210.284 144.649 210.237 144.272 210.19 143.942C210.144 143.565 210.05 143.235 210.003 142.906C209.956 142.764 209.956 142.623 209.909 142.482C209.909 142.387 209.862 142.34 209.862 142.246C209.815 142.152 209.815 142.011 209.768 141.916C209.58 141.162 209.44 140.691 209.44 140.691L214.226 139.466L218.449 147.381Z" fill="#EFBFA5"/>
<path d="M209.017 151.245C197.756 159.254 193.673 170.231 183.631 171.974C183.631 171.974 181.801 175.461 184.335 177.204C190.388 181.397 210.519 164.201 210.519 164.201L209.017 151.245Z" fill="#544695"/>
<path d="M212.443 154.071C216.29 154.919 214.883 144.225 216.525 143.848C218.167 143.471 226.191 146.439 225.206 155.296C224.221 164.153 228.96 165.378 226.989 169.713C224.971 174.047 213.1 174.801 212.49 171.267C211.88 167.734 205.451 157.558 210.003 148.842C210.847 147.193 210.19 153.6 212.443 154.071Z" fill="#544695"/>
<path d="M206.343 135.32C206.061 138.76 204.841 142.01 209.909 142.199C212.396 142.293 214.742 140.032 215.258 136.592C215.728 133.153 214.132 130.091 211.692 129.714C209.205 129.384 206.906 127.971 206.343 135.32Z" fill="#EFBFA5"/>
<path d="M212.771 125.851C206.249 125.427 197.943 127.547 205.451 129.526C205.451 129.526 200.243 132.494 209.205 131.174C209.299 131.174 209.44 131.174 209.534 131.127C218.308 129.714 211.645 136.216 213.475 135.415C215.305 134.614 216.197 137.111 213.897 138.618C211.551 140.126 208.314 136.545 205.592 139.137C205.592 139.137 201.369 143.989 209.862 143.942C209.862 143.942 215.962 145.355 216.901 136.404C216.854 136.404 221.124 126.416 212.771 125.851Z" fill="#3B455A"/>
<path d="M158.151 179.324L179.736 170.938L199.444 180.125L186.306 190.961L158.151 179.324Z" fill="#4F586B"/>
<path d="M157.541 179.324C157.541 179.324 153.553 158.83 156.791 159.866C156.791 159.866 178.563 160.761 185.273 168.629C185.273 168.629 188.417 185.119 186.775 191.055C186.775 191.102 157.682 182.951 157.541 179.324Z" fill="#3B455A"/>
<path d="M157.635 163.871C156.931 169.147 157.072 179.936 165.472 182.48C173.871 185.024 182.927 187.663 183.631 187.804C184.335 187.992 186.587 185.213 183.631 184.6C180.675 184.035 165.8 180.831 162.891 177.957C159.981 175.084 159.7 171.315 159.935 168.535C160.169 165.802 158.245 159.631 157.635 163.871Z" fill="#4F586B"/>
<path d="M171.384 163.871C171.384 164.248 171.103 164.53 170.727 164.53C170.352 164.53 170.07 164.248 170.07 163.871C170.07 163.494 170.352 163.211 170.727 163.211C171.103 163.211 171.384 163.494 171.384 163.871Z" fill="#4F586B"/>
<path d="M199.632 178.711C196.817 178.052 196.629 175.178 193.954 176.685C191.28 178.146 188.323 186.909 191.233 184.459C194.142 182.009 194.752 180.737 195.784 180.596C196.817 180.454 197.661 182.669 199.069 183.375C200.477 184.035 199.632 178.711 199.632 178.711Z" fill="#EFBFA5"/>
<path d="M219.293 145.167C224.455 145.591 227.458 154.166 224.455 162.033C221.452 169.901 222.156 180.549 207.328 182.527C192.453 184.506 198.74 184.836 198.694 180.407C198.6 175.979 198.834 177.015 206.108 175.649C213.381 174.283 213.991 166.886 213.897 161.374C213.803 155.862 217.088 144.979 219.293 145.167Z" fill="#544695"/>
<path d="M212.442 170.938C212.348 170.938 213.803 166.745 213.803 163.164C213.756 155.155 216.149 149.501 216.29 149.549C216.384 149.596 216.665 149.925 216.572 150.02C214.507 153.789 214.366 158.971 214.272 163.164C214.179 167.074 214.085 170.137 212.583 170.938C212.536 170.938 212.489 170.938 212.442 170.938Z" fill="#8167E3"/>
<path d="M219.669 177.204C219.669 177.204 221.405 179.748 224.502 179.748V181.444C224.502 181.444 219.669 181.35 218.496 177.204H219.669Z" fill="#FC7370"/>
<path d="M390.704 328.27C387.064 325.536 383.424 327.263 379.443 327.407C375.348 327.551 371.253 327.119 367.271 327.838C366.703 327.982 366.134 328.126 365.679 328.558C362.153 332.299 378.419 332.731 379.898 332.587C381.718 332.443 392.865 332.731 391.955 329.997C391.728 329.133 391.159 328.558 390.704 328.27Z" fill="url(#paint23_linear)"/>
<path d="M390.827 318.514C391.014 318.142 391.202 317.77 391.39 317.398C393.548 313.119 395.331 308.655 396.832 304.19C397.489 302.051 397.958 298.888 395.425 297.772C393.829 297.121 391.765 298.237 390.545 299.167C388.668 300.563 387.073 302.423 385.759 304.376C385.102 305.306 383.32 307.538 382.85 309.027C383.413 301.214 384.164 293.308 384.07 285.402C383.976 281.402 383.976 273.217 378.909 271.915C377.877 271.636 376.657 271.915 375.719 272.38C371.684 274.333 371.496 278.798 371.027 282.704C370.464 287.355 370.464 292.098 371.027 296.749C370.276 294.331 369.056 292.098 367.461 290.238C366.523 289.122 365.397 288.099 364.083 287.541C362.769 286.983 361.08 286.89 359.86 287.634C356.013 289.773 355.825 295.447 356.576 299.167C357.608 304.19 360.423 308.562 363.332 312.747C365.96 316.468 368.493 320.374 371.59 323.722C372.622 324.932 373.936 325.304 375.156 326.327C376.094 327.164 376.845 328.373 377.877 329.024C380.035 328.931 382.1 328.931 384.258 328.931C384.915 328.931 387.636 324.281 388.011 323.629C388.856 321.955 389.888 320.281 390.827 318.514Z" fill="#544695"/>
<path d="M367.179 323.258C368.399 324.467 371.59 327.35 374.405 329.117C376.657 329.024 378.909 329.024 381.067 328.931C383.507 326.792 385.571 324.281 387.26 321.583C388.199 320.188 388.762 318.514 388.574 316.933C388.105 313.956 384.914 312.747 382.568 314.515C381.912 314.98 381.442 315.631 380.879 316.282C380.692 315.91 380.692 315.352 380.692 314.887C380.786 309.399 380.598 303.539 379.66 298.237C379.19 295.447 377.689 289.494 373.56 290.982C372.34 291.448 371.496 292.471 370.839 293.494C369.244 296.191 368.681 299.447 368.774 302.609C368.774 305.771 369.337 308.934 369.525 312.003C369.431 310.05 365.678 306.888 364.27 305.678C362.863 304.376 359.578 303.167 358.265 305.399C357.796 306.236 357.983 307.353 358.171 308.376C359.766 314.142 362.863 319.258 367.179 323.258Z" fill="#B5ABDE"/>
<path opacity="0.38" fill-rule="evenodd" clip-rule="evenodd" d="M376.281 328.559C376.656 328.559 377.125 328.559 377.501 328.652C377.36 325.583 377.061 322.513 376.762 319.444C376.662 318.421 376.562 317.398 376.469 316.375C376.398 315.502 376.334 314.624 376.27 313.742L376.27 313.742C375.993 309.923 375.712 306.05 374.873 302.423C374.78 302.051 374.404 302.144 374.404 302.516C374.18 306.747 374.612 311.157 375.035 315.46C375.142 316.548 375.248 317.63 375.343 318.7L375.404 319.415C375.666 322.444 375.933 325.542 376.281 328.559ZM369.994 318.049C369.717 317.856 369.448 317.664 369.183 317.474L369.183 317.474C368.549 317.021 367.934 316.582 367.273 316.188C366.898 315.909 366.241 316.095 365.959 316.56C365.678 317.025 365.866 317.584 366.335 317.863C366.612 318.055 366.881 318.247 367.146 318.437L367.146 318.437C367.78 318.89 368.395 319.33 369.056 319.723C369.431 320.002 370.088 319.816 370.37 319.351C370.557 318.886 370.37 318.328 369.994 318.049ZM383.883 318.328C384.352 318.049 385.009 318.328 385.197 318.7C385.478 319.165 385.29 319.723 384.821 320.002C384.258 320.421 383.719 320.816 383.179 321.211C382.64 321.607 382.1 322.002 381.537 322.42C381.068 322.7 380.411 322.42 380.223 322.048C380.036 321.583 380.223 321.025 380.599 320.746L383.883 318.328Z" fill="white"/>
<defs>
<filter id="filter0_d" x="318.851" y="102.148" width="131.458" height="110.572" filterUnits="userSpaceOnUse" color-interpolation-filters="sRGB">
<feFlood flood-opacity="0" result="BackgroundImageFix"/>
<feColorMatrix in="SourceAlpha" type="matrix" values="0 0 0 0 0 0 0 0 0 0 0 0 0 0 0 0 0 0 127 0"/>
<feOffset dx="-4" dy="4"/>
<feGaussianBlur stdDeviation="7.5"/>
<feColorMatrix type="matrix" values="0 0 0 0 0.505883 0 0 0 0 0.403922 0 0 0 0 0.890196 0 0 0 0.2 0"/>
<feBlend mode="normal" in2="BackgroundImageFix" result="effect1_dropShadow"/>
<feBlend mode="normal" in="SourceGraphic" in2="effect1_dropShadow" result="shape"/>
</filter>
<filter id="filter1_d" x="205.938" y="161.047" width="222.002" height="169.269" filterUnits="userSpaceOnUse" color-interpolation-filters="sRGB">
<feFlood flood-opacity="0" result="BackgroundImageFix"/>
<feColorMatrix in="SourceAlpha" type="matrix" values="0 0 0 0 0 0 0 0 0 0 0 0 0 0 0 0 0 0 127 0"/>
<feOffset dx="-4" dy="4"/>
<feGaussianBlur stdDeviation="7.5"/>
<feColorMatrix type="matrix" values="0 0 0 0 0.505883 0 0 0 0 0.403922 0 0 0 0 0.890196 0 0 0 0.2 0"/>
<feBlend mode="normal" in2="BackgroundImageFix" result="effect1_dropShadow"/>
<feBlend mode="normal" in="SourceGraphic" in2="effect1_dropShadow" result="shape"/>
</filter>
<filter id="filter2_d" x="250.135" y="133.518" width="90.4389" height="77.997" filterUnits="userSpaceOnUse" color-interpolation-filters="sRGB">
<feFlood flood-opacity="0" result="BackgroundImageFix"/>
<feColorMatrix in="SourceAlpha" type="matrix" values="0 0 0 0 0 0 0 0 0 0 0 0 0 0 0 0 0 0 127 0"/>
<feOffset dx="-4" dy="4"/>
<feGaussianBlur stdDeviation="7.5"/>
<feColorMatrix type="matrix" values="0 0 0 0 0.505883 0 0 0 0 0.403922 0 0 0 0 0.890196 0 0 0 0.2 0"/>
<feBlend mode="normal" in2="BackgroundImageFix" result="effect1_dropShadow"/>
<feBlend mode="normal" in="SourceGraphic" in2="effect1_dropShadow" result="shape"/>
</filter>
<filter id="filter3_d" x="0.196777" y="180.043" width="69.0611" height="61.1354" filterUnits="userSpaceOnUse" color-interpolation-filters="sRGB">
<feFlood flood-opacity="0" result="BackgroundImageFix"/>
<feColorMatrix in="SourceAlpha" type="matrix" values="0 0 0 0 0 0 0 0 0 0 0 0 0 0 0 0 0 0 127 0"/>
<feOffset dx="-4" dy="4"/>
<feGaussianBlur stdDeviation="7.5"/>
<feColorMatrix type="matrix" values="0 0 0 0 0.505883 0 0 0 0 0.403922 0 0 0 0 0.890196 0 0 0 0.2 0"/>
<feBlend mode="normal" in2="BackgroundImageFix" result="effect1_dropShadow"/>
<feBlend mode="normal" in="SourceGraphic" in2="effect1_dropShadow" result="shape"/>
</filter>
<linearGradient id="paint0_linear" x1="79.9227" y1="336.646" x2="79.9227" y2="327.123" gradientUnits="userSpaceOnUse">
<stop stop-color="#FDFEFE" stop-opacity="0.42"/>
<stop offset="1" stop-color="#F1F6FD"/>
</linearGradient>
<linearGradient id="paint1_linear" x1="108.579" y1="302.545" x2="107.851" y2="319.786" gradientUnits="userSpaceOnUse">
<stop stop-color="#E3E1ED"/>
<stop offset="1" stop-color="#E3E1ED" stop-opacity="0"/>
</linearGradient>
<linearGradient id="paint2_linear" x1="455.373" y1="217.452" x2="193.323" y2="80.4949" gradientUnits="userSpaceOnUse">
<stop stop-color="#B5ABDE"/>
<stop offset="1" stop-color="#E2DCFC" stop-opacity="0"/>
</linearGradient>
<linearGradient id="paint3_linear" x1="117.398" y1="312.447" x2="9.99999" y2="312.447" gradientUnits="userSpaceOnUse">
<stop stop-color="#7E6EE6"/>
<stop offset="1" stop-color="#3C9BE2"/>
</linearGradient>
<linearGradient id="paint4_linear" x1="316.361" y1="154.448" x2="182.662" y2="195.757" gradientUnits="userSpaceOnUse">
<stop stop-color="#8167E3"/>
<stop offset="1" stop-color="#389ADF"/>
</linearGradient>
<linearGradient id="paint5_linear" x1="237.834" y1="297.792" x2="134.239" y2="197.795" gradientUnits="userSpaceOnUse">
<stop stop-color="#FFC20A"/>
<stop offset="1" stop-color="#FFEFBE"/>
<stop offset="1" stop-color="#FFFAEC"/>
</linearGradient>
<linearGradient id="paint6_linear" x1="261.622" y1="224.763" x2="235.727" y2="144.346" gradientUnits="userSpaceOnUse">
<stop stop-color="#FFC20A"/>
<stop offset="1" stop-color="#FFEFBE"/>
<stop offset="1" stop-color="#FFFAEC"/>
</linearGradient>
<linearGradient id="paint7_linear" x1="189.019" y1="277.969" x2="163.349" y2="257.789" gradientUnits="userSpaceOnUse">
<stop stop-color="#FFC20A"/>
<stop offset="1" stop-color="#FFEFBE"/>
<stop offset="1" stop-color="#FFFAEC"/>
</linearGradient>
<linearGradient id="paint8_linear" x1="157.084" y1="269.438" x2="149.737" y2="262.942" gradientUnits="userSpaceOnUse">
<stop stop-color="#FFC20A"/>
<stop offset="1" stop-color="#FFEFBE"/>
<stop offset="1" stop-color="#FFFAEC"/>
</linearGradient>
<linearGradient id="paint9_linear" x1="201.892" y1="272.627" x2="194.778" y2="276.975" gradientUnits="userSpaceOnUse">
<stop stop-color="#FFC20A"/>
<stop offset="1" stop-color="#FFEFBE"/>
<stop offset="1" stop-color="#FFFAEC"/>
</linearGradient>
<linearGradient id="paint10_linear" x1="202.191" y1="259.995" x2="194.085" y2="257.272" gradientUnits="userSpaceOnUse">
<stop stop-color="#FFC20A"/>
<stop offset="1" stop-color="#FFEFBE"/>
<stop offset="1" stop-color="#FFFAEC"/>
</linearGradient>
<linearGradient id="paint11_linear" x1="162.227" y1="281.749" x2="153.231" y2="282.628" gradientUnits="userSpaceOnUse">
<stop stop-color="#FFC20A"/>
<stop offset="1" stop-color="#FFEFBE"/>
<stop offset="1" stop-color="#FFFAEC"/>
</linearGradient>
<linearGradient id="paint12_linear" x1="191.908" y1="244.481" x2="183.146" y2="247.132" gradientUnits="userSpaceOnUse">
<stop stop-color="#FFC20A"/>
<stop offset="1" stop-color="#FFEFBE"/>
<stop offset="1" stop-color="#FFFAEC"/>
</linearGradient>
<linearGradient id="paint13_linear" x1="176.172" y1="287.144" x2="169.752" y2="293.324" gradientUnits="userSpaceOnUse">
<stop stop-color="#FFC20A"/>
<stop offset="1" stop-color="#FFEFBE"/>
<stop offset="1" stop-color="#FFFAEC"/>
</linearGradient>
<linearGradient id="paint14_linear" x1="176.659" y1="245.254" x2="168.951" y2="240.28" gradientUnits="userSpaceOnUse">
<stop stop-color="#FFC20A"/>
<stop offset="1" stop-color="#FFEFBE"/>
<stop offset="1" stop-color="#FFFAEC"/>
</linearGradient>
<linearGradient id="paint15_linear" x1="193.088" y1="288.281" x2="184.398" y2="286.551" gradientUnits="userSpaceOnUse">
<stop stop-color="#FFC20A"/>
<stop offset="1" stop-color="#FFEFBE"/>
<stop offset="1" stop-color="#FFFAEC"/>
</linearGradient>
<linearGradient id="paint16_linear" x1="162.153" y1="250.418" x2="153.521" y2="252.77" gradientUnits="userSpaceOnUse">
<stop stop-color="#FFC20A"/>
<stop offset="1" stop-color="#FFEFBE"/>
<stop offset="1" stop-color="#FFFAEC"/>
</linearGradient>
<linearGradient id="paint17_linear" x1="434.347" y1="165.032" x2="350.418" y2="128.593" gradientUnits="userSpaceOnUse">
<stop offset="0.0573912" stop-color="#3BB4A2"/>
<stop offset="1" stop-color="#72EBD9"/>
</linearGradient>
<linearGradient id="paint18_linear" x1="416.94" y1="241.682" x2="235.762" y2="197.397" gradientUnits="userSpaceOnUse">
<stop offset="0.0806838" stop-color="#568DCD"/>
<stop offset="1" stop-color="#A5CCF9"/>
</linearGradient>
<linearGradient id="paint19_linear" x1="327.346" y1="163.316" x2="272.315" y2="159.605" gradientUnits="userSpaceOnUse">
<stop offset="0.0962187" stop-color="#FC7370"/>
<stop offset="1" stop-color="#FAC5C4"/>
</linearGradient>
<linearGradient id="paint20_linear" x1="56.1402" y1="213.661" x2="29.6403" y2="192.973" gradientUnits="userSpaceOnUse">
<stop stop-color="#FFC20A"/>
<stop offset="1" stop-color="#FFEFBE"/>
<stop offset="1" stop-color="#FFFAEC"/>
</linearGradient>
<linearGradient id="paint21_linear" x1="42.8321" y1="227.564" x2="96.6503" y2="211.028" gradientUnits="userSpaceOnUse">
<stop offset="0.0962187" stop-color="#FC7370"/>
<stop offset="1" stop-color="#FAC5C4"/>
</linearGradient>
<linearGradient id="paint22_linear" x1="175.688" y1="83.6719" x2="125.438" y2="59.1329" gradientUnits="userSpaceOnUse">
<stop stop-color="#9DC8FF"/>
<stop offset="1" stop-color="#B3D0F2" stop-opacity="0.02"/>
</linearGradient>
<linearGradient id="paint23_linear" x1="392.041" y1="323.876" x2="391.327" y2="333.55" gradientUnits="userSpaceOnUse">
<stop stop-color="#E3E1ED"/>
<stop offset="1" stop-color="#E3E1ED" stop-opacity="0"/>
</linearGradient>
</defs>
</svg>
