<svg width="72" height="73" viewBox="0 0 72 73" fill="none" xmlns="http://www.w3.org/2000/svg">
<circle cx="36.8602" cy="37.4238" r="33.3329" fill="url(#paint0_linear)"/>
<path d="M3.60156 44.6224H46.3475V64.9024H3.60156V44.6224Z" fill="url(#paint1_linear)"/>
<path d="M14.6582 44.486C14.6582 44.5614 14.5971 44.6225 14.5217 44.6225H7.45195C7.37655 44.6225 7.31543 44.5614 7.31543 44.486V40.5587C7.31543 40.0064 7.76315 39.5587 8.31543 39.5587H13.6582C14.2105 39.5587 14.6582 40.0064 14.6582 40.5587V44.486Z" fill="#FC7370"/>
<path d="M28.6455 44.486C28.6455 44.5614 28.5844 44.6225 28.509 44.6225H21.4393C21.3639 44.6225 21.3027 44.5614 21.3027 44.486V40.5587C21.3027 40.0064 21.7504 39.5587 22.3027 39.5587H27.6455C28.1978 39.5587 28.6455 40.0064 28.6455 40.5587V44.486Z" fill="#FC7370"/>
<path opacity="0.5" d="M3.60156 44.6224H8.25579V64.9024H3.60156V44.6224Z" fill="#FC7370"/>
<path d="M33.4785 33.5002V49.897L67.7771 49.7726V33.5002H33.4785Z" fill="url(#paint2_linear)"/>
<path d="M64.799 33.392C64.799 33.4519 64.7505 33.5003 64.6907 33.5003H59.0155C58.9557 33.5003 58.9072 33.4519 58.9072 33.392V30.4373C58.9072 29.885 59.3549 29.4373 59.9072 29.4373H63.799C64.3513 29.4373 64.799 29.885 64.799 30.4373V33.392Z" fill="#FFC20A"/>
<path d="M53.5719 33.392C53.5719 33.4519 53.5234 33.5003 53.4636 33.5003H47.7885C47.7287 33.5003 47.6802 33.4519 47.6802 33.392V30.4373C47.6802 29.885 48.1279 29.4373 48.6802 29.4373H52.5719C53.1242 29.4373 53.5719 29.885 53.5719 30.4373V33.392Z" fill="#FFC20A"/>
<path d="M42.351 33.392C42.351 33.4519 42.3025 33.5003 42.2427 33.5003H36.5675C36.5077 33.5003 36.4592 33.4519 36.4592 33.392V30.4373C36.4592 29.885 36.9069 29.4373 37.4592 29.4373H41.351C41.9033 29.4373 42.351 29.885 42.351 30.4373V33.392Z" fill="#FFC20A"/>
<path opacity="0.5" d="M33.4785 33.5002H37.213V49.8273H33.4785V33.5002Z" fill="#FFC20A"/>
<path d="M3.48047 8.44629V27.2957L33.4805 27.1526V8.44629H3.48047Z" fill="url(#paint3_linear)"/>
<path d="M28.6805 8.32817C28.6805 8.39346 28.6275 8.44639 28.5622 8.44639H21.5987C21.5334 8.44639 21.4805 8.39346 21.4805 8.32817V5.01123C21.4805 4.45895 21.9282 4.01123 22.4805 4.01123H27.6805C28.2328 4.01123 28.6805 4.45895 28.6805 5.01123V8.32817Z" fill="#5084C1"/>
<path d="M14.282 8.32817C14.282 8.39346 14.2291 8.44639 14.1638 8.44639H7.20025C7.13496 8.44639 7.08203 8.39346 7.08203 8.32817V5.01123C7.08203 4.45895 7.52975 4.01123 8.08203 4.01123H13.282C13.8343 4.01123 14.282 4.45895 14.282 5.01123V8.32817Z" fill="#5084C1"/>
<path opacity="0.5" d="M3.48047 8.44629H8.13469V27.2479H3.48047V8.44629Z" fill="#5084C1"/>
<defs>
<linearGradient id="paint0_linear" x1="36.8602" y1="4.09094" x2="36.8602" y2="70.7567" gradientUnits="userSpaceOnUse">
<stop stop-color="#FDFEFE" stop-opacity="0.42"/>
<stop offset="1" stop-color="#F1F6FD"/>
</linearGradient>
<linearGradient id="paint1_linear" x1="46.3475" y1="54.7624" x2="9.17055" y2="40.3736" gradientUnits="userSpaceOnUse">
<stop offset="0.0962187" stop-color="#FC7370"/>
<stop offset="1" stop-color="#FAC5C4"/>
</linearGradient>
<linearGradient id="paint2_linear" x1="65.6334" y1="48.0114" x2="53.3856" y2="27.0853" gradientUnits="userSpaceOnUse">
<stop stop-color="#FFC20A"/>
<stop offset="1" stop-color="#FFEFBE"/>
<stop offset="1" stop-color="#FFFAEC"/>
</linearGradient>
<linearGradient id="paint3_linear" x1="33.4805" y1="17.871" x2="5.69299" y2="10.03" gradientUnits="userSpaceOnUse">
<stop offset="0.0806838" stop-color="#568DCD"/>
<stop offset="1" stop-color="#A5CCF9"/>
</linearGradient>
</defs>
</svg>
