<svg width="72" height="73" viewBox="0 0 72 73" fill="none" xmlns="http://www.w3.org/2000/svg">
<circle cx="36" cy="39.7712" r="33" fill="url(#paint0_linear)"/>
<g clip-path="url(#clip0)">
<path d="M47.553 12.6598L48.3193 12.0851C49.6847 11.0611 49.9614 9.12414 48.9374 7.75874C47.9134 6.39336 45.9764 6.11661 44.611 7.1406L43.8448 7.71526C43.1784 8.21469 42.2766 8.26348 41.5599 7.83899C40.8432 7.4145 40.4529 6.60022 40.5701 5.77588L40.7053 4.8288C40.9464 3.13935 39.7725 1.57423 38.0831 1.33286C36.3934 1.09146 34.828 2.26562 34.5867 3.95533L34.4517 4.90125C34.3345 5.72659 33.7314 6.39954 32.9242 6.60625C32.117 6.81347 31.2645 6.51371 30.7645 5.8468L30.1904 5.0811C29.1664 3.71547 27.2292 3.43864 25.8638 4.46281C24.4987 5.48668 24.2219 7.42319 25.2454 8.78852L25.82 9.55505C26.3194 10.222 26.3682 11.1233 25.9437 11.84C25.5193 12.5567 24.705 12.947 23.8806 12.8298L22.9333 12.6945C21.2439 12.4534 19.6789 13.6272 19.4374 15.3164C19.1959 17.0062 20.3701 18.5718 22.06 18.813L23.007 18.9482C23.8319 19.0659 24.5048 19.6689 24.7115 20.4761C24.9182 21.2834 24.6185 22.1359 23.9516 22.6358L23.1859 23.2102C21.8207 24.2343 21.5442 26.1713 22.5682 27.5366C23.5922 28.9018 25.5291 29.1786 26.8945 28.1547L27.6598 27.5808C28.3262 27.0809 29.2285 27.0316 29.9457 27.4561C30.6624 27.8806 31.0532 28.6953 30.9355 29.5202L30.7997 30.4633C30.5562 32.1538 31.7302 33.7213 33.421 33.9629C35.1093 34.2043 36.6739 33.0323 36.917 31.3442L37.0539 30.3928C37.1716 29.568 37.7747 28.8955 38.5819 28.6888C39.3891 28.4816 40.2416 28.7819 40.7411 29.4483L41.3162 30.2147C42.3403 31.5795 44.2767 31.8559 45.6417 30.8321C47.0072 29.8079 47.2836 27.8706 46.259 26.5054L45.6846 25.74C45.1846 25.0736 45.1354 24.1713 45.5599 23.4541C45.9843 22.7374 46.7991 22.3466 47.624 22.4648L48.571 22.6001C50.2604 22.8415 51.8257 21.6676 52.0673 19.9782C52.3088 18.2885 51.1348 16.723 49.4451 16.4816L48.4986 16.3464C47.6743 16.2282 47.0018 15.6257 46.7946 14.8184C46.5879 14.0117 46.8871 13.1597 47.553 12.6598ZM35.7528 24.8573C31.7704 24.8573 28.5425 21.6294 28.5425 17.647C28.5425 13.6652 31.7704 10.4367 35.7528 10.4367C39.7352 10.4367 42.9631 13.6652 42.9631 17.647C42.9631 21.6294 39.7352 24.8573 35.7528 24.8573Z" fill="url(#paint1_linear)"/>
<path d="M61.9457 35.9375L62.5346 35.4959C63.5841 34.7088 63.7968 33.2201 63.0097 32.1706C62.2227 31.1212 60.7339 30.9085 59.6845 31.6955L59.0956 32.1372C58.5834 32.5211 57.8903 32.5586 57.3394 32.2323C56.7885 31.906 56.4886 31.2802 56.5786 30.6466L56.6826 29.9187C56.8679 28.6202 55.9656 27.4172 54.6671 27.2317C53.3685 27.0462 52.1653 27.9486 51.9799 29.2473L51.8761 29.9744C51.786 30.6087 51.3225 31.1259 50.7021 31.2848C50.0816 31.4441 49.4264 31.2137 49.0422 30.7011L48.6009 30.1126C47.8139 29.063 46.3249 28.8502 45.2755 29.6374C44.2263 30.4243 44.0135 31.9127 44.8002 32.9621L45.2418 33.5513C45.6257 34.0638 45.6632 34.7566 45.3369 35.3074C45.0107 35.8583 44.3848 36.1583 43.7512 36.0682L43.0231 35.9642C41.7247 35.7789 40.5218 36.6811 40.3362 37.9794C40.1505 39.2782 41.0531 40.4815 42.3519 40.6669L43.0798 40.7708C43.7137 40.8612 44.231 41.3247 44.3898 41.9451C44.5487 42.5656 44.3183 43.2208 43.8057 43.6051L43.2173 44.0465C42.168 44.8337 41.9554 46.3224 42.7425 47.3718C43.5296 48.4211 45.0182 48.6338 46.0677 47.8469L46.6559 47.4058C47.1681 47.0215 47.8616 46.9836 48.4128 47.3099C48.9637 47.6362 49.264 48.2624 49.1736 48.8964L49.0692 49.6212C48.882 50.9206 49.7844 52.1253 51.0839 52.3111C52.3815 52.4966 53.5841 51.5957 53.7709 50.2983L53.8762 49.5671C53.9666 48.9331 54.4301 48.4163 55.0505 48.2574C55.671 48.0981 56.3262 48.3289 56.7101 48.8411L57.1521 49.4302C57.9392 50.4792 59.4276 50.6916 60.4767 49.9047C61.5262 49.1175 61.7386 47.6285 60.9512 46.5793L60.5096 45.9909C60.1254 45.4787 60.0875 44.7852 60.4138 44.234C60.74 43.6831 61.3663 43.3828 62.0002 43.4736L62.7281 43.5776C64.0266 43.7631 65.2297 42.8609 65.4153 41.5624C65.601 40.2638 64.6986 39.0605 63.4 38.875L62.6725 38.7711C62.0389 38.6802 61.522 38.2171 61.3628 37.5967C61.2039 36.9766 61.4339 36.3218 61.9457 35.9375ZM52.8761 45.3125C49.8153 45.3125 47.3343 42.8315 47.3343 39.7707C47.3343 36.7103 49.8153 34.2289 52.8761 34.2289C55.9369 34.2289 58.4179 36.7103 58.4179 39.7707C58.4179 42.8315 55.9369 45.3125 52.8761 45.3125Z" fill="#3FC0AD"/>
<circle opacity="0.7" cx="32.7766" cy="29.0207" r="15.3" fill="url(#paint2_linear)"/>
<path fill-rule="evenodd" clip-rule="evenodd" d="M18.4312 29.0089C18.4312 37.0094 24.9058 43.3997 32.7743 43.3997C40.6427 43.3997 47.1174 37.0094 47.1174 29.0089C47.1174 21.0083 40.6427 14.618 32.7743 14.618C24.9058 14.618 18.4312 21.0083 18.4312 29.0089ZM22.6895 45.2516C25.6172 47.0711 29.073 48.122 32.7743 48.122C43.3363 48.122 51.8984 39.5647 51.8984 29.0089C51.8984 18.453 43.3363 9.89575 32.7743 9.89575C22.2123 9.89575 13.6501 18.453 13.6501 29.0089C13.6501 34.2766 15.7824 39.0466 19.2315 42.5038L5.99844 59.5899C7.48653 61.3727 10.2429 61.3223 11.6648 59.4864L22.6895 45.2516Z" fill="#FC7370"/>
<rect x="18.6836" y="41.9121" width="6.42781" height="3.32504" rx="1" transform="rotate(39.0466 18.6836 41.9121)" fill="#4F586B"/>
</g>
<defs>
<linearGradient id="paint0_linear" x1="36" y1="6.77124" x2="36" y2="72.7712" gradientUnits="userSpaceOnUse">
<stop stop-color="#FDFEFE" stop-opacity="0.42"/>
<stop offset="1" stop-color="#F1F6FD"/>
</linearGradient>
<linearGradient id="paint1_linear" x1="50.4106" y1="30.5468" x2="22.2851" y2="7.57383" gradientUnits="userSpaceOnUse">
<stop stop-color="#FFC20A"/>
<stop offset="1" stop-color="#FFEFBE"/>
<stop offset="1" stop-color="#FFFAEC"/>
</linearGradient>
<linearGradient id="paint2_linear" x1="49.88" y1="38.6298" x2="20.4786" y2="19.8171" gradientUnits="userSpaceOnUse">
<stop stop-color="#9DC8FF"/>
<stop offset="1" stop-color="#B3D0F2" stop-opacity="0.02"/>
</linearGradient>
<clipPath id="clip0">
<rect width="60" height="60" fill="white" transform="translate(6 0.895752)"/>
</clipPath>
</defs>
</svg>
