<svg width="72" height="73" viewBox="0 0 72 73" fill="none" xmlns="http://www.w3.org/2000/svg">
<circle cx="36" cy="36.8958" r="32.7397" transform="rotate(90 36 36.8958)" fill="url(#paint0_linear)"/>
<path opacity="0.5" d="M17.0659 32.5183C17.0659 30.8615 18.4091 29.5183 20.0659 29.5183H38.9231C40.5799 29.5183 41.9231 30.8615 41.9231 32.5183V51.3755C41.9231 53.0323 40.5799 54.3755 38.9231 54.3755H20.0659C18.4091 54.3755 17.0659 53.0323 17.0659 51.3755V32.5183Z" fill="#3FC0AD"/>
<path opacity="0.5" d="M45.0659 39.5183C45.0659 37.8615 46.4091 36.5183 48.0659 36.5183H55.0349C56.6917 36.5183 58.0349 37.8615 58.0349 39.5183V46.4873C58.0349 48.1441 56.6917 49.4873 55.0349 49.4873H48.0659C46.4091 49.4873 45.0659 48.1441 45.0659 46.4873V39.5183Z" fill="#5084C1"/>
<path d="M38.3285 23.6117C38.3285 17.2854 33.3241 12.1572 27.1504 12.1572C20.9767 12.1572 15.9497 17.3259 15.9722 23.6522C15.9835 26.7951 17.2262 29.6371 19.237 31.6976C20.8016 33.3009 21.9426 35.2862 22.5187 37.474L23.4225 40.889H30.7484L31.6013 37.6535C32.1887 35.4193 33.3749 33.3993 34.9847 31.7728C37.0464 29.7007 38.3285 26.8125 38.3285 23.6117Z" fill="url(#paint1_linear)"/>
<path d="M28.8412 44.8941H25.2714C24.2604 44.8941 23.3905 44.1301 23.334 43.1577L23.0347 39.4071L31.1232 39.355L30.7786 43.1577C30.7221 44.1301 29.8523 44.8941 28.8412 44.8941Z" fill="#3B455A"/>
<path d="M30.3947 40.9878C28.1354 41.0863 25.8647 40.9704 23.6054 41.0689C23.402 41.0805 23.419 41.3759 23.6167 41.3875C25.876 41.4628 28.1467 41.318 30.406 41.3933C30.6659 41.4049 30.6546 40.9762 30.3947 40.9878Z" fill="#4F586B"/>
<path d="M30.3947 41.9949C28.1354 42.0934 25.8647 41.9775 23.6054 42.076C23.402 42.0876 23.419 42.3831 23.6167 42.3947C25.876 42.47 28.1467 42.3251 30.406 42.4004C30.6659 42.412 30.6546 41.9833 30.3947 41.9949Z" fill="#4F586B"/>
<path fill-rule="evenodd" clip-rule="evenodd" d="M28.0615 6.33485C28.0615 7.07573 27.6774 9.72667 27.2086 9.72667C26.7342 9.72667 26.3557 7.07573 26.3557 6.33485C26.3557 5.59398 26.7342 4.9978 27.2086 4.9978C27.6774 4.9978 28.0615 5.59398 28.0615 6.33485ZM38.7202 10.4093C38.1723 10.8897 36.4608 12.9155 36.7658 13.286C37.0765 13.6506 39.285 12.221 39.8329 11.7405C40.3808 11.2601 40.5729 10.5713 40.2622 10.2067C39.9572 9.83625 39.2681 9.92886 38.7202 10.4093ZM39.4866 21.8123C39.5431 22.2928 42.1583 22.3449 42.8756 22.2523C43.5873 22.1597 44.1183 21.6966 44.0618 21.2161C44.0053 20.7357 43.3783 20.4231 42.661 20.5157C41.9493 20.6083 39.4245 21.3319 39.4866 21.8123ZM16.6681 9.52982C17.233 9.98709 19.0405 11.9319 18.7468 12.3139C18.453 12.696 16.1824 11.3705 15.6119 10.9132C15.047 10.4559 14.8211 9.77871 15.1148 9.39669C15.4085 9.01468 16.1033 9.07256 16.6681 9.52982ZM14.6461 19.9138C14.5896 20.3942 11.9744 20.4463 11.257 20.3537C10.5397 20.2611 10.0087 19.798 10.0709 19.3176C10.1273 18.8372 10.7543 18.5246 11.4717 18.6172C12.1834 18.7098 14.7082 19.4333 14.6461 19.9138Z" fill="url(#paint2_linear)"/>
<path d="M31.9752 29.4458C31.6137 29.1738 31.337 28.8265 31.1336 28.4271C31.5403 27.912 31.7154 27.2232 31.7945 26.5808C31.8397 26.1872 31.851 25.7936 31.8566 25.4C31.8622 25.018 31.8114 24.6996 31.5008 24.4623C31.2183 24.254 30.8455 24.4392 30.6309 24.6476C30.3824 24.8849 30.2638 25.2727 30.1677 25.591C29.9757 26.2393 29.9757 26.9396 30.1 27.5994C30.1395 27.831 30.2073 28.0567 30.2864 28.2766C30.1282 28.404 29.9475 28.5024 29.7498 28.5718C29.1397 28.7744 28.6766 28.4098 28.3941 27.8773C28.349 27.7904 28.3038 27.6978 28.2642 27.5994C28.3151 27.4663 28.3603 27.3332 28.3998 27.2059C28.6088 26.5692 28.7218 25.9093 28.7726 25.2437C28.8178 24.6939 28.8291 24.034 28.3151 23.7041C28.1513 23.5999 27.9592 23.6809 27.8576 23.8256C27.1007 24.9022 27.1459 26.3261 27.5525 27.5474C27.4226 27.8715 27.2645 28.184 27.095 28.4908C26.903 28.8265 26.5415 29.3416 26.1009 29.278C25.6942 29.2143 25.3666 28.6934 25.1633 28.3635C25.0164 28.1262 24.8978 27.8715 24.8074 27.6052C24.8583 27.4663 24.9091 27.3216 24.9543 27.1827C25.1294 26.6213 25.2254 26.0309 25.2706 25.4405C25.3101 24.9485 25.3214 24.2598 24.8018 24.0224C24.6493 23.953 24.4233 23.9588 24.3443 24.144C23.8867 25.1916 23.7964 26.3434 24.0844 27.4605C24.0957 27.501 24.107 27.5358 24.1183 27.5705C23.802 28.3982 23.3163 29.168 22.7288 29.822C22.4634 30.1172 22.8813 30.5456 23.1581 30.2619C23.6834 29.7121 24.1183 29.0928 24.4572 28.4156C24.5589 28.6123 24.6719 28.7976 24.7961 28.977C25.1407 29.4632 25.57 29.9204 26.1856 29.9494C26.7618 29.9841 27.2306 29.4863 27.5412 29.0522C27.6881 28.8439 27.8237 28.6181 27.9366 28.3866C28.219 28.8497 28.6257 29.2143 29.1793 29.2895C29.6876 29.3648 30.1847 29.2027 30.6027 28.9133C30.8455 29.3416 31.1619 29.7237 31.5346 30.042C31.9357 30.4124 32.4158 29.7757 31.9752 29.4458ZM28.123 24.6649C28.1456 24.937 28.0835 25.2784 28.0722 25.4463C28.044 25.7473 27.9931 26.054 27.9253 26.3492C27.8519 25.7646 27.9027 25.1627 28.123 24.6649ZM30.7326 26.3955C30.7552 26.1119 30.8286 25.8283 30.919 25.5621C30.9585 25.4405 31.015 25.3247 31.0828 25.2148C31.0884 25.209 31.111 25.1743 31.1336 25.1453C31.1393 25.1627 31.1449 25.1916 31.1449 25.2264C31.1788 25.9209 31.1223 26.6734 30.9133 27.3332C30.8851 27.4142 30.8568 27.4953 30.8229 27.5705C30.7382 27.1885 30.7043 26.7833 30.7326 26.3955Z" fill="white"/>
<path d="M32.6096 27.7608C31.4235 31.4768 30.1695 35.1754 28.8252 38.8392C28.6671 39.2791 29.3223 39.5454 29.4861 39.1055C30.8247 35.4358 32.0674 31.7372 33.1857 27.9923C33.2987 27.6045 32.7339 27.3672 32.6096 27.7608Z" fill="white"/>
<path d="M21.799 27.5244C22.7479 31.3156 23.6347 35.1241 24.4198 38.95C24.5158 39.4073 25.2106 39.2742 25.1146 38.8169C24.3181 34.9852 23.4257 31.1825 22.4033 27.4086C22.3017 27.0151 21.7029 27.1308 21.799 27.5244Z" fill="white"/>
<path fill-rule="evenodd" clip-rule="evenodd" d="M30.9231 39.5181H12.0659V58.3752H30.9231V39.5181ZM12.0659 36.5181C10.4091 36.5181 9.06592 37.8612 9.06592 39.5181V58.3752C9.06592 60.0321 10.4091 61.3752 12.0659 61.3752H30.9231C32.5799 61.3752 33.9231 60.0321 33.9231 58.3752V39.5181C33.9231 37.8612 32.5799 36.5181 30.9231 36.5181H12.0659Z" fill="#3FC0AD"/>
<path fill-rule="evenodd" clip-rule="evenodd" d="M59.0352 41.5181H52.0352C51.4829 41.5181 51.0352 41.9658 51.0352 42.5181V49.5181C51.0352 50.0704 51.4829 50.5181 52.0352 50.5181H59.0352C59.5874 50.5181 60.0352 50.0704 60.0352 49.5181V42.5181C60.0352 41.9658 59.5874 41.5181 59.0352 41.5181ZM52.0352 39.5181C50.3783 39.5181 49.0352 40.8612 49.0352 42.5181V49.5181C49.0352 51.1749 50.3783 52.5181 52.0352 52.5181H59.0352C60.692 52.5181 62.0352 51.1749 62.0352 49.5181V42.5181C62.0352 40.8612 60.692 39.5181 59.0352 39.5181H52.0352Z" fill="#5084C1"/>
<path fill-rule="evenodd" clip-rule="evenodd" d="M58.5347 12.2895C58.6051 12.2088 58.6791 12.1301 58.7568 12.0536C60.4129 10.4231 63.0977 10.4224 64.7548 12.0516C64.7554 12.0523 64.7561 12.053 64.7568 12.0536C64.7575 12.0543 64.7582 12.055 64.7589 12.0557C66.4137 13.6871 66.413 16.3303 64.7568 17.9609C64.6792 18.0374 64.5992 18.1102 64.5173 18.1795L58.5347 12.2895Z" fill="#FC7370"/>
<path d="M57.144 13.6453L63.1441 19.5525L62.221 20.4614L56.221 14.5541L57.144 13.6453Z" fill="#5084C1"/>
<path d="M57.0303 13.4087L63.0303 19.316L62.1072 20.2248L56.1072 14.3175L57.0303 13.4087Z" fill="#FC7370"/>
<path d="M58.5308 19.5524L60.8385 21.8244L47.4538 35.0022L46.2614 31.632L58.5308 19.5524Z" fill="#4F586B"/>
<path d="M57.144 18.1892L54.8363 15.9172L41.4516 29.095L44.8747 30.2689L57.144 18.1892Z" fill="#4F586B"/>
<path d="M40.0651 30.4581L44.4497 32.0485L46.0651 36.3654L37.0651 39.319L40.0651 30.4581Z" fill="#FC7370"/>
<defs>
<linearGradient id="paint0_linear" x1="36" y1="4.15601" x2="36" y2="69.6355" gradientUnits="userSpaceOnUse">
<stop stop-color="#FDFEFE" stop-opacity="0.42"/>
<stop offset="1" stop-color="#F1F6FD"/>
</linearGradient>
<linearGradient id="paint1_linear" x1="36.9313" y1="37.5848" x2="14.6452" y2="23.4209" gradientUnits="userSpaceOnUse">
<stop stop-color="#FFC20A"/>
<stop offset="1" stop-color="#FFEFBE"/>
<stop offset="1" stop-color="#FFFAEC"/>
</linearGradient>
<linearGradient id="paint2_linear" x1="41.9409" y1="20.3016" x2="28.6462" y2="-1.04921" gradientUnits="userSpaceOnUse">
<stop stop-color="#FFC20A"/>
<stop offset="1" stop-color="#FFEFBE"/>
<stop offset="1" stop-color="#FFFAEC"/>
</linearGradient>
</defs>
</svg>
