<svg width="72" height="73" viewBox="0 0 72 73" fill="none" xmlns="http://www.w3.org/2000/svg">
<circle cx="34.9169" cy="39.9397" r="32.956" fill="url(#paint0_linear)"/>
<g clip-path="url(#clip0)">
<path d="M27.7108 31.5176L28.3167 31.0631C29.3958 30.2537 29.6145 28.7228 28.8052 27.6435C27.9958 26.564 26.4643 26.3451 25.3849 27.1548L24.7798 27.6087C24.2531 28.0036 23.5404 28.0421 22.9739 27.7065C22.4074 27.371 22.099 26.7272 22.1916 26.0755L22.2985 25.3262C22.4891 23.9909 21.5613 22.7539 20.226 22.5631C18.8905 22.3723 17.6532 23.3003 17.4625 24.6359L17.3557 25.3841C17.2631 26.0366 16.7865 26.5686 16.1485 26.732C15.5104 26.8958 14.8366 26.6588 14.4415 26.1316L13.9879 25.5266C13.1786 24.4469 11.647 24.228 10.5676 25.0378C9.48886 25.8471 9.27008 27.3775 10.0789 28.4567L10.5335 29.0632C10.9282 29.5904 10.9668 30.3029 10.6313 30.8695C10.2957 31.4361 9.65215 31.7447 9.00062 31.652L8.2525 31.5452C6.91694 31.3545 5.67964 32.2825 5.48876 33.618C5.29785 34.9539 6.22611 36.1915 7.56196 36.3822L8.31012 36.489C8.96206 36.582 9.49394 37.0587 9.65732 37.6969C9.8207 38.3351 9.58378 39.009 9.05667 39.4042L8.45122 39.8585C7.37229 40.6681 7.15372 42.199 7.96298 43.2782C8.77248 44.3576 10.3038 44.5764 11.3833 43.7668L11.9876 43.3135C12.5143 42.9183 13.2275 42.8794 13.7943 43.2149C14.3608 43.5505 14.6697 44.1947 14.5767 44.8467L14.4692 45.593C14.2768 46.9291 15.2047 48.1679 16.541 48.359C17.8754 48.5498 19.1121 47.6234 19.3042 46.2891L19.4125 45.5366C19.5055 44.8845 19.9822 44.3529 20.6202 44.1895C21.2582 44.0257 21.932 44.263 22.3267 44.7899L22.7811 45.3955C23.5905 46.4745 25.1215 46.6931 26.2005 45.8835C27.2796 45.074 27.498 43.543 26.6884 42.464L26.234 41.8583C25.8388 41.3315 25.7999 40.6181 26.1354 40.0512C26.4709 39.4846 27.1149 39.1756 27.7668 39.2691L28.5146 39.3759C29.8503 39.5668 31.0878 38.6388 31.2787 37.3031C31.4696 35.9674 30.5416 34.7299 29.2059 34.539L28.4581 34.4321C27.8066 34.3387 27.2751 33.8623 27.1113 33.2242C26.9479 32.5864 27.1845 31.9129 27.7108 31.5176ZM18.3841 41.1605C15.2365 41.1605 12.6852 38.6086 12.6852 35.4603C12.6852 32.3125 15.2365 29.7602 18.3841 29.7602C21.5317 29.7602 24.083 32.3125 24.083 35.4603C24.083 38.6086 21.5317 41.1605 18.3841 41.1605Z" fill="#3FC0AD"/>
<path d="M30.8452 59.3406C30.8452 61.0959 32.2675 62.519 34.0229 62.519H38.2599C40.0147 62.519 41.4376 61.0959 41.4376 59.3406V52.9838H30.8452V59.3406Z" fill="#E2DFEF"/>
<path d="M55.206 25.4375C55.205 16.2938 48.7156 8.43726 39.7385 6.71148C30.7614 4.9857 21.8225 9.87541 18.4327 18.3672C15.043 26.8591 18.1555 36.5624 25.8521 41.4956C27.6157 42.5892 28.6993 44.508 28.7251 46.5835V50.8648C28.7251 52.6201 30.1474 54.0432 31.9028 54.0432H40.3767C42.1316 54.0432 43.5544 52.6201 43.5544 50.8648V46.6714C43.5813 44.5468 44.6866 42.582 46.4885 41.4563C51.9264 37.9447 55.2096 31.9117 55.206 25.4375Z" fill="url(#paint1_linear)"/>
<path d="M43.3622 31.8964C42.7724 31.3096 42.3208 30.5605 41.989 29.6991C42.6526 28.588 42.9383 27.1023 43.0673 25.7165C43.141 24.8676 43.1595 24.0186 43.1687 23.1697C43.1779 22.3457 43.095 21.659 42.5881 21.1472C42.1273 20.6977 41.519 21.0972 41.1688 21.5467C40.7633 22.0585 40.5698 22.895 40.4131 23.5816C40.0997 24.9799 40.0997 26.4906 40.3025 27.9138C40.367 28.4132 40.4776 28.9001 40.6066 29.3745C40.3486 29.6492 40.0537 29.8614 39.7311 30.0112C38.7358 30.4482 37.9801 29.6616 37.5193 28.5131C37.4455 28.3258 37.3718 28.126 37.3073 27.9138C37.3902 27.6267 37.464 27.3395 37.5285 27.0649C37.8695 25.6915 38.0538 24.2683 38.1367 22.8326C38.2105 21.6465 38.2289 20.2233 37.3902 19.5117C37.123 19.2869 36.8096 19.4617 36.6437 19.7738C35.4088 22.096 35.4825 25.1672 36.1461 27.8014C35.9341 28.5006 35.676 29.1747 35.3996 29.8364C35.0862 30.5605 34.4964 31.6717 33.7775 31.5343C33.114 31.397 32.5794 30.2734 32.2477 29.5618C32.0081 29.0499 31.8145 28.5006 31.6671 27.9263C31.75 27.6267 31.8329 27.3145 31.9067 27.0149C32.1924 25.8039 32.349 24.5305 32.4228 23.257C32.4873 22.1959 32.5057 20.7102 31.6578 20.1983C31.409 20.0485 31.0404 20.061 30.9113 20.4605C30.1648 22.7202 30.0174 25.2046 30.4874 27.6142C30.5058 27.7016 30.5243 27.7765 30.5427 27.8514C30.0266 29.6367 29.234 31.2971 28.2756 32.7079C27.8424 33.3446 28.5244 34.2685 28.976 33.6567C29.8331 32.4707 30.5427 31.1348 31.0957 29.6741C31.2616 30.0986 31.4459 30.4981 31.6486 30.8851C32.2108 31.9338 32.9112 32.9201 33.9158 32.9825C34.8558 33.0575 35.6207 31.9838 36.1276 31.0474C36.3672 30.598 36.5884 30.1111 36.7728 29.6117C37.2336 30.6105 37.8971 31.397 38.8003 31.5593C39.6297 31.7216 40.4407 31.372 41.1227 30.7478C41.519 31.6717 42.0351 32.4956 42.6434 33.1823C43.2977 33.9813 44.0811 32.608 43.3622 31.8964ZM37.0769 21.5841C37.1137 22.1709 37.0124 22.9075 36.9939 23.2695C36.9479 23.9187 36.8649 24.5804 36.7543 25.2171C36.6345 23.9562 36.7175 22.6578 37.0769 21.5841ZM41.3347 25.317C41.3716 24.7053 41.4914 24.0935 41.6388 23.5192C41.7033 23.257 41.7955 23.0074 41.9061 22.7701C41.9153 22.7577 41.9522 22.6828 41.989 22.6203C41.9983 22.6578 42.0075 22.7202 42.0075 22.7951C42.0628 24.2933 41.9706 25.9163 41.6296 27.3395C41.5835 27.5143 41.5375 27.6891 41.4822 27.8514C41.3439 27.0274 41.2886 26.1535 41.3347 25.317Z" fill="white"/>
<path d="M44.3957 28.2626C42.4604 36.2778 40.4144 44.2555 38.221 52.1584C37.963 53.1072 39.032 53.6815 39.2993 52.7327C41.4835 44.8173 43.511 36.8396 45.3358 28.7619C45.5201 27.9255 44.5985 27.4136 44.3957 28.2626Z" fill="white"/>
<path d="M26.7552 27.7517C28.3035 35.9292 29.7505 44.1441 31.0315 52.3964C31.1882 53.3827 32.3218 53.0956 32.1651 52.1093C30.8656 43.8444 29.4095 35.642 27.7414 27.502C27.5755 26.6531 26.5986 26.9027 26.7552 27.7517Z" fill="white"/>
<path d="M61.7656 14.2288L62.5539 13.6375C63.9579 12.5843 64.2425 10.5925 63.1896 9.18828C62.1364 7.78368 60.1439 7.49899 58.7395 8.55246L57.9523 9.14301C57.267 9.65671 56.3396 9.70689 55.6026 9.27027C54.8656 8.83366 54.4642 7.99611 54.5847 7.14822L54.7239 6.17322C54.9718 4.43594 53.7647 2.82654 52.0274 2.57829C50.2898 2.32998 48.6799 3.53749 48.4319 5.27518L48.2929 6.2486C48.1724 7.09753 47.5523 7.7897 46.7222 8.00232C45.892 8.21546 45.0154 7.90713 44.5013 7.22117L43.9112 6.43398C42.8581 5.02921 40.8655 4.74445 39.4611 5.79804C38.0575 6.85101 37.7729 8.8422 38.8252 10.2462L39.4166 11.0354C39.9302 11.7213 39.9804 12.6484 39.5439 13.3856C39.1073 14.1227 38.27 14.5242 37.4223 14.4036L36.4489 14.2647C34.7113 14.0166 33.1014 15.224 32.8531 16.9616C32.6047 18.6996 33.8124 20.3098 35.5505 20.5579L36.5239 20.6969C37.3721 20.8179 38.0641 21.4382 38.2767 22.2685C38.4893 23.0988 38.181 23.9756 37.4952 24.4898L36.7075 25.0809C35.3037 26.1343 35.0193 28.126 36.0722 29.5301C37.1255 30.9346 39.1179 31.2193 40.5223 30.1659L41.3086 29.5761C41.9939 29.0619 42.9217 29.0112 43.6593 29.4479C44.3963 29.8845 44.7982 30.7225 44.6771 31.5709L44.5373 32.5419C44.287 34.2802 45.4942 35.892 47.2329 36.1406C48.9691 36.3889 50.5781 35.1835 50.828 33.4475L50.9689 32.4685C51.09 31.6201 51.7101 30.9284 52.5402 30.7158C53.3703 30.5027 54.247 30.8115 54.7606 31.497L55.3517 32.2849C56.4049 33.6888 58.3968 33.9731 59.8007 32.9199C61.2046 31.8666 61.4888 29.8746 60.4355 28.4708L59.8442 27.6828C59.3301 26.9973 59.2794 26.0692 59.7159 25.3315C60.1524 24.5943 60.9903 24.1924 61.8385 24.314L62.8115 24.453C64.5493 24.7013 66.1594 23.4939 66.4078 21.7561C66.6562 20.0183 65.4487 18.4081 63.7109 18.1598L62.738 18.0208C61.8903 17.8992 61.1988 17.2794 60.9857 16.4491C60.7731 15.6194 61.0808 14.743 61.7656 14.2288ZM49.6309 26.7749C45.5357 26.7749 42.2163 23.4547 42.2163 19.3585C42.2163 15.2629 45.5357 11.9422 49.6309 11.9422C53.7262 11.9422 57.0456 15.2629 57.0456 19.3585C57.0456 23.4547 53.7262 26.7749 49.6309 26.7749Z" fill="#5084C1"/>
<path d="M30.8452 56.1621H41.4376V58.2806H30.8452V56.1621Z" fill="#B5ABDE"/>
<path d="M57.3214 40.2703H62.6176C63.2026 40.2703 63.6769 40.744 63.6769 41.3295C63.6769 41.9145 63.2026 42.3887 62.6176 42.3887H57.3214C56.7365 42.3887 56.2622 41.9145 56.2622 41.3295C56.2622 40.744 56.7365 40.2703 57.3214 40.2703Z" fill="url(#paint2_linear)"/>
<path d="M55.206 46.6276C55.5805 46.178 56.2482 46.117 56.6976 46.4915L61.4259 50.4319C61.8754 50.8065 61.9364 51.4743 61.5619 51.9239C61.187 52.3735 60.5193 52.4345 60.0698 52.06L55.3415 48.1195C54.8921 47.745 54.8316 47.0771 55.206 46.6276Z" fill="url(#paint3_linear)"/>
<path d="M50.9655 48.746C51.5504 48.746 52.0247 49.2198 52.0247 49.8054V55.1028C52.0247 55.6879 51.5504 56.1623 50.9655 56.1623C50.3805 56.1623 49.9062 55.6879 49.9062 55.1028V49.8054C49.9062 49.2198 50.3805 48.746 50.9655 48.746Z" fill="url(#paint4_linear)"/>
<path d="M6.19115 18.8538L12.6097 17.2504C13.1776 17.1087 13.7522 17.4537 13.8939 18.0211C14.0356 18.5885 13.6906 19.1631 13.1227 19.3048L6.70422 20.9081C6.13633 21.0498 5.56171 20.7049 5.42 20.1375C5.27828 19.5701 5.62326 18.9955 6.19115 18.8538Z" fill="url(#paint5_linear)"/>
<path d="M7.53804 7.42709C7.87785 6.95115 8.53935 6.84148 9.01518 7.18136L14.7055 11.247C15.1818 11.5869 15.292 12.2485 14.9522 12.7245C14.6124 13.2004 13.9509 13.3106 13.475 12.9702L7.78475 8.90456C7.30841 8.56468 7.19824 7.90303 7.53804 7.42709Z" fill="url(#paint6_linear)"/>
<path d="M17.0257 1.06864C17.5925 0.923795 18.1692 1.26574 18.314 1.83273L19.9556 8.25526C20.1005 8.82224 19.7586 9.39957 19.1917 9.54442C18.6249 9.68927 18.0482 9.34681 17.9034 8.78034L16.2618 2.35781C16.1169 1.79082 16.4588 1.21349 17.0257 1.06864Z" fill="url(#paint7_linear)"/>
</g>
<defs>
<linearGradient id="paint0_linear" x1="34.9169" y1="6.98376" x2="34.9169" y2="72.8957" gradientUnits="userSpaceOnUse">
<stop stop-color="#FDFEFE" stop-opacity="0.42"/>
<stop offset="1" stop-color="#F1F6FD"/>
</linearGradient>
<linearGradient id="paint1_linear" x1="52.8226" y1="48.5604" x2="15.4182" y2="24.1232" gradientUnits="userSpaceOnUse">
<stop stop-color="#FFC20A"/>
<stop offset="1" stop-color="#FFEFBE"/>
<stop offset="1" stop-color="#FFFAEC"/>
</linearGradient>
<linearGradient id="paint2_linear" x1="63.2134" y1="42.1451" x2="62.0822" y2="38.911" gradientUnits="userSpaceOnUse">
<stop stop-color="#FFC20A"/>
<stop offset="1" stop-color="#FFEFBE"/>
<stop offset="1" stop-color="#FFFAEC"/>
</linearGradient>
<linearGradient id="paint3_linear" x1="61.3794" y1="51.6086" x2="56.205" y2="46.8328" gradientUnits="userSpaceOnUse">
<stop stop-color="#FFC20A"/>
<stop offset="1" stop-color="#FFEFBE"/>
<stop offset="1" stop-color="#FFFAEC"/>
</linearGradient>
<linearGradient id="paint4_linear" x1="51.8923" y1="55.3094" x2="49.0806" y2="54.6534" gradientUnits="userSpaceOnUse">
<stop stop-color="#FFC20A"/>
<stop offset="1" stop-color="#FFEFBE"/>
<stop offset="1" stop-color="#FFFAEC"/>
</linearGradient>
<linearGradient id="paint5_linear" x1="13.3921" y1="20.512" x2="10.7437" y2="15.5491" gradientUnits="userSpaceOnUse">
<stop stop-color="#FFC20A"/>
<stop offset="1" stop-color="#FFEFBE"/>
<stop offset="1" stop-color="#FFFAEC"/>
</linearGradient>
<linearGradient id="paint6_linear" x1="14.6614" y1="12.4567" x2="9.366" y2="6.99525" gradientUnits="userSpaceOnUse">
<stop stop-color="#FFC20A"/>
<stop offset="1" stop-color="#FFEFBE"/>
<stop offset="1" stop-color="#FFFAEC"/>
</linearGradient>
<linearGradient id="paint7_linear" x1="19.7538" y1="8.59528" x2="15.0937" y2="6.91968" gradientUnits="userSpaceOnUse">
<stop stop-color="#FFC20A"/>
<stop offset="1" stop-color="#FFEFBE"/>
<stop offset="1" stop-color="#FFFAEC"/>
</linearGradient>
<clipPath id="clip0">
<rect width="61.7143" height="61.7143" fill="white" transform="translate(5.14307 0.895752)"/>
</clipPath>
</defs>
</svg>
